<mxfile host="app.diagrams.net" agent="Mozilla/5.0 (Windows NT 10.0; Win64; x64) AppleWebKit/537.36 (KHTML, like Gecko) Chrome/133.0.0.0 Safari/537.36 OPR/118.0.0.0" version="26.2.6">
  <diagram name="PÃ¡gina-1" id="BEGrBsFgpgpYIN1WFoCE">
    <mxGraphModel dx="4483" dy="2809" grid="1" gridSize="10" guides="1" tooltips="1" connect="1" arrows="0" fold="1" page="1" pageScale="1" pageWidth="827" pageHeight="1169" math="0" shadow="0">
      <root>
        <mxCell id="0" />
        <mxCell id="1" parent="0" />
        <mxCell id="3AsOJ7ozK4heC9LJ-4Nu-354" style="edgeStyle=orthogonalEdgeStyle;rounded=0;orthogonalLoop=1;jettySize=auto;html=1;exitX=0.84;exitY=0.8;exitDx=0;exitDy=0;exitPerimeter=0;" edge="1" parent="1" source="3AsOJ7ozK4heC9LJ-4Nu-352" target="3AsOJ7ozK4heC9LJ-4Nu-353">
          <mxGeometry relative="1" as="geometry" />
        </mxCell>
        <mxCell id="3AsOJ7ozK4heC9LJ-4Nu-352" value="" style="shape=mxgraph.cisco.modems_and_phones.cable_modem;sketch=0;html=1;pointerEvents=1;dashed=0;fillColor=#036897;strokeColor=#ffffff;strokeWidth=2;verticalLabelPosition=bottom;verticalAlign=top;align=center;outlineConnect=0;" vertex="1" parent="1">
          <mxGeometry x="400" y="90" width="74" height="35" as="geometry" />
        </mxCell>
        <mxCell id="3AsOJ7ozK4heC9LJ-4Nu-353" value="" style="sketch=0;points=[[0.015,0.015,0],[0.985,0.015,0],[0.985,0.985,0],[0.015,0.985,0],[0.25,0,0],[0.5,0,0],[0.75,0,0],[1,0.25,0],[1,0.5,0],[1,0.75,0],[0.75,1,0],[0.5,1,0],[0.25,1,0],[0,0.75,0],[0,0.5,0],[0,0.25,0]];verticalLabelPosition=bottom;html=1;verticalAlign=top;aspect=fixed;align=center;pointerEvents=1;shape=mxgraph.cisco19.rect;prIcon=nam_virtual_service_blade;fillColor=#FAFAFA;strokeColor=#005073;" vertex="1" parent="1">
          <mxGeometry x="754" y="40" width="64" height="50" as="geometry" />
        </mxCell>
        <mxCell id="3AsOJ7ozK4heC9LJ-4Nu-356" value="" style="shape=mxgraph.cisco.routers.router;sketch=0;html=1;pointerEvents=1;dashed=0;fillColor=#036897;strokeColor=#ffffff;strokeWidth=2;verticalLabelPosition=bottom;verticalAlign=top;align=center;outlineConnect=0;" vertex="1" parent="1">
          <mxGeometry x="250" y="290" width="78" height="53" as="geometry" />
        </mxCell>
        <mxCell id="3AsOJ7ozK4heC9LJ-4Nu-357" value="" style="shape=mxgraph.cisco.security.firewall;sketch=0;html=1;pointerEvents=1;dashed=0;fillColor=#036897;strokeColor=#ffffff;strokeWidth=2;verticalLabelPosition=bottom;verticalAlign=top;align=center;outlineConnect=0;" vertex="1" parent="1">
          <mxGeometry x="274.5" y="480" width="29" height="67" as="geometry" />
        </mxCell>
        <mxCell id="3AsOJ7ozK4heC9LJ-4Nu-358" value="" style="shape=mxgraph.cisco.switches.workgroup_switch;sketch=0;html=1;pointerEvents=1;dashed=0;fillColor=#036897;strokeColor=#ffffff;strokeWidth=2;verticalLabelPosition=bottom;verticalAlign=top;align=center;outlineConnect=0;" vertex="1" parent="1">
          <mxGeometry x="247.38" y="690" width="83.25" height="40" as="geometry" />
        </mxCell>
        <mxCell id="3AsOJ7ozK4heC9LJ-4Nu-359" value="" style="shape=mxgraph.cisco.security.firewall;sketch=0;html=1;pointerEvents=1;fillColor=#036897;strokeColor=#ffffff;strokeWidth=2;verticalLabelPosition=bottom;verticalAlign=top;align=center;outlineConnect=0;" vertex="1" parent="1">
          <mxGeometry x="274.5" y="890" width="25.5" height="67" as="geometry" />
        </mxCell>
        <mxCell id="3AsOJ7ozK4heC9LJ-4Nu-361" value="" style="shape=mxgraph.cisco.servers.fileserver;sketch=0;html=1;pointerEvents=1;dashed=0;fillColor=#036897;strokeColor=#ffffff;strokeWidth=2;verticalLabelPosition=bottom;verticalAlign=top;align=center;outlineConnect=0;" vertex="1" parent="1">
          <mxGeometry x="520" y="554" width="43" height="62" as="geometry" />
        </mxCell>
        <mxCell id="3AsOJ7ozK4heC9LJ-4Nu-362" value="" style="shape=mxgraph.cisco.servers.fileserver;sketch=0;html=1;pointerEvents=1;dashed=0;fillColor=#036897;strokeColor=#ffffff;strokeWidth=2;verticalLabelPosition=bottom;verticalAlign=top;align=center;outlineConnect=0;" vertex="1" parent="1">
          <mxGeometry x="650" y="648" width="43" height="62" as="geometry" />
        </mxCell>
        <mxCell id="3AsOJ7ozK4heC9LJ-4Nu-363" value="" style="shape=mxgraph.cisco.servers.fileserver;sketch=0;html=1;pointerEvents=1;dashed=0;fillColor=#036897;strokeColor=#ffffff;strokeWidth=2;verticalLabelPosition=bottom;verticalAlign=top;align=center;outlineConnect=0;" vertex="1" parent="1">
          <mxGeometry x="520" y="780" width="43" height="62" as="geometry" />
        </mxCell>
        <mxCell id="3AsOJ7ozK4heC9LJ-4Nu-372" value="" style="endArrow=none;html=1;rounded=0;exitX=0.98;exitY=0.5;exitDx=0;exitDy=0;exitPerimeter=0;entryX=0;entryY=0.5;entryDx=0;entryDy=0;entryPerimeter=0;" edge="1" parent="1" source="3AsOJ7ozK4heC9LJ-4Nu-358" target="3AsOJ7ozK4heC9LJ-4Nu-362">
          <mxGeometry width="50" height="50" relative="1" as="geometry">
            <mxPoint x="440" y="660" as="sourcePoint" />
            <mxPoint x="490" y="610" as="targetPoint" />
          </mxGeometry>
        </mxCell>
        <mxCell id="3AsOJ7ozK4heC9LJ-4Nu-373" value="" style="endArrow=none;html=1;rounded=0;" edge="1" parent="1" source="3AsOJ7ozK4heC9LJ-4Nu-358" target="3AsOJ7ozK4heC9LJ-4Nu-361">
          <mxGeometry width="50" height="50" relative="1" as="geometry">
            <mxPoint x="440" y="660" as="sourcePoint" />
            <mxPoint x="490" y="610" as="targetPoint" />
          </mxGeometry>
        </mxCell>
        <mxCell id="3AsOJ7ozK4heC9LJ-4Nu-374" value="" style="endArrow=none;html=1;rounded=0;exitX=0.87;exitY=0.74;exitDx=0;exitDy=0;exitPerimeter=0;" edge="1" parent="1" source="3AsOJ7ozK4heC9LJ-4Nu-358" target="3AsOJ7ozK4heC9LJ-4Nu-363">
          <mxGeometry width="50" height="50" relative="1" as="geometry">
            <mxPoint x="440" y="660" as="sourcePoint" />
            <mxPoint x="490" y="610" as="targetPoint" />
          </mxGeometry>
        </mxCell>
        <mxCell id="3AsOJ7ozK4heC9LJ-4Nu-375" value="" style="endArrow=none;html=1;rounded=0;exitX=0.5;exitY=0;exitDx=0;exitDy=0;exitPerimeter=0;" edge="1" parent="1" source="3AsOJ7ozK4heC9LJ-4Nu-358" target="3AsOJ7ozK4heC9LJ-4Nu-357">
          <mxGeometry width="50" height="50" relative="1" as="geometry">
            <mxPoint x="440" y="660" as="sourcePoint" />
            <mxPoint x="490" y="610" as="targetPoint" />
          </mxGeometry>
        </mxCell>
        <mxCell id="3AsOJ7ozK4heC9LJ-4Nu-376" value="" style="endArrow=none;html=1;rounded=0;" edge="1" parent="1" source="3AsOJ7ozK4heC9LJ-4Nu-357" target="3AsOJ7ozK4heC9LJ-4Nu-356">
          <mxGeometry width="50" height="50" relative="1" as="geometry">
            <mxPoint x="440" y="490" as="sourcePoint" />
            <mxPoint x="490" y="440" as="targetPoint" />
          </mxGeometry>
        </mxCell>
        <mxCell id="3AsOJ7ozK4heC9LJ-4Nu-377" value="" style="endArrow=none;html=1;rounded=0;" edge="1" parent="1" source="3AsOJ7ozK4heC9LJ-4Nu-356" target="3AsOJ7ozK4heC9LJ-4Nu-352">
          <mxGeometry width="50" height="50" relative="1" as="geometry">
            <mxPoint x="440" y="140" as="sourcePoint" />
            <mxPoint x="490" y="90" as="targetPoint" />
          </mxGeometry>
        </mxCell>
        <mxCell id="3AsOJ7ozK4heC9LJ-4Nu-378" value="" style="endArrow=none;html=1;rounded=0;exitX=0.5;exitY=0;exitDx=0;exitDy=0;exitPerimeter=0;" edge="1" parent="1" source="3AsOJ7ozK4heC9LJ-4Nu-359" target="3AsOJ7ozK4heC9LJ-4Nu-358">
          <mxGeometry width="50" height="50" relative="1" as="geometry">
            <mxPoint x="440" y="930" as="sourcePoint" />
            <mxPoint x="490" y="880" as="targetPoint" />
          </mxGeometry>
        </mxCell>
        <mxCell id="3AsOJ7ozK4heC9LJ-4Nu-379" value="" style="shape=mxgraph.cisco.switches.workgroup_switch;sketch=0;html=1;pointerEvents=1;dashed=0;fillColor=#036897;strokeColor=#ffffff;strokeWidth=2;verticalLabelPosition=bottom;verticalAlign=top;align=center;outlineConnect=0;" vertex="1" parent="1">
          <mxGeometry x="-50" y="917" width="81" height="40" as="geometry" />
        </mxCell>
        <mxCell id="3AsOJ7ozK4heC9LJ-4Nu-380" value="Core Switch" style="text;html=1;align=center;verticalAlign=middle;whiteSpace=wrap;rounded=0;" vertex="1" parent="1">
          <mxGeometry x="-39.5" y="870" width="60" height="30" as="geometry" />
        </mxCell>
        <mxCell id="3AsOJ7ozK4heC9LJ-4Nu-381" value="" style="endArrow=none;html=1;rounded=0;entryX=0;entryY=0.5;entryDx=0;entryDy=0;entryPerimeter=0;" edge="1" parent="1" source="3AsOJ7ozK4heC9LJ-4Nu-379" target="3AsOJ7ozK4heC9LJ-4Nu-359">
          <mxGeometry width="50" height="50" relative="1" as="geometry">
            <mxPoint x="320" y="920" as="sourcePoint" />
            <mxPoint x="370" y="870" as="targetPoint" />
          </mxGeometry>
        </mxCell>
        <mxCell id="3AsOJ7ozK4heC9LJ-4Nu-382" value="" style="shape=mxgraph.cisco.switches.layer_3_switch;sketch=0;html=1;pointerEvents=1;dashed=0;fillColor=#036897;strokeColor=#ffffff;strokeWidth=2;verticalLabelPosition=bottom;verticalAlign=top;align=center;outlineConnect=0;" vertex="1" parent="1">
          <mxGeometry x="-300" y="908" width="54" height="49" as="geometry" />
        </mxCell>
        <mxCell id="3AsOJ7ozK4heC9LJ-4Nu-383" value="" style="shape=mxgraph.cisco.switches.workgroup_switch;sketch=0;html=1;pointerEvents=1;dashed=0;fillColor=#036897;strokeColor=#ffffff;strokeWidth=2;verticalLabelPosition=bottom;verticalAlign=top;align=center;outlineConnect=0;" vertex="1" parent="1">
          <mxGeometry x="-650" y="40" width="81" height="30" as="geometry" />
        </mxCell>
        <mxCell id="3AsOJ7ozK4heC9LJ-4Nu-384" value="" style="shape=mxgraph.cisco.switches.workgroup_switch;sketch=0;html=1;pointerEvents=1;dashed=0;fillColor=#036897;strokeColor=#ffffff;strokeWidth=2;verticalLabelPosition=bottom;verticalAlign=top;align=center;outlineConnect=0;" vertex="1" parent="1">
          <mxGeometry x="-650" y="480" width="81" height="30" as="geometry" />
        </mxCell>
        <mxCell id="3AsOJ7ozK4heC9LJ-4Nu-385" value="" style="shape=mxgraph.cisco.switches.workgroup_switch;sketch=0;html=1;pointerEvents=1;dashed=0;fillColor=#036897;strokeColor=#ffffff;strokeWidth=2;verticalLabelPosition=bottom;verticalAlign=top;align=center;outlineConnect=0;" vertex="1" parent="1">
          <mxGeometry x="-670" y="1460" width="81" height="30" as="geometry" />
        </mxCell>
        <mxCell id="3AsOJ7ozK4heC9LJ-4Nu-388" value="" style="shape=mxgraph.cisco.switches.workgroup_switch;sketch=0;html=1;pointerEvents=1;dashed=0;fillColor=#036897;strokeColor=#ffffff;strokeWidth=2;verticalLabelPosition=bottom;verticalAlign=top;align=center;outlineConnect=0;" vertex="1" parent="1">
          <mxGeometry x="-670" y="927" width="81" height="30" as="geometry" />
        </mxCell>
        <mxCell id="3AsOJ7ozK4heC9LJ-4Nu-389" value="" style="shape=mxgraph.cisco.switches.workgroup_switch;sketch=0;html=1;pointerEvents=1;dashed=0;fillColor=#036897;strokeColor=#ffffff;strokeWidth=2;verticalLabelPosition=bottom;verticalAlign=top;align=center;outlineConnect=0;" vertex="1" parent="1">
          <mxGeometry x="-670" y="2060" width="81" height="30" as="geometry" />
        </mxCell>
        <mxCell id="3AsOJ7ozK4heC9LJ-4Nu-390" value="" style="shape=mxgraph.cisco.switches.workgroup_switch;sketch=0;html=1;pointerEvents=1;dashed=0;fillColor=#036897;strokeColor=#ffffff;strokeWidth=2;verticalLabelPosition=bottom;verticalAlign=top;align=center;outlineConnect=0;" vertex="1" parent="1">
          <mxGeometry x="-670" y="2730" width="81" height="30" as="geometry" />
        </mxCell>
        <mxCell id="3AsOJ7ozK4heC9LJ-4Nu-391" value="RecepciÃ³n" style="text;html=1;align=center;verticalAlign=middle;whiteSpace=wrap;rounded=0;" vertex="1" parent="1">
          <mxGeometry x="-659.5" y="2670" width="60" height="30" as="geometry" />
        </mxCell>
        <mxCell id="3AsOJ7ozK4heC9LJ-4Nu-394" value="Planta 2-3" style="text;html=1;align=center;verticalAlign=middle;whiteSpace=wrap;rounded=0;" vertex="1" parent="1">
          <mxGeometry x="-659.5" y="2020" width="60" height="30" as="geometry" />
        </mxCell>
        <mxCell id="3AsOJ7ozK4heC9LJ-4Nu-395" value="Planta 4-5" style="text;html=1;align=center;verticalAlign=middle;whiteSpace=wrap;rounded=0;" vertex="1" parent="1">
          <mxGeometry x="-659.5" y="1420" width="60" height="30" as="geometry" />
        </mxCell>
        <mxCell id="3AsOJ7ozK4heC9LJ-4Nu-396" value="Planta 6-7" style="text;html=1;align=center;verticalAlign=middle;whiteSpace=wrap;rounded=0;" vertex="1" parent="1">
          <mxGeometry x="-659.5" y="887" width="60" height="30" as="geometry" />
        </mxCell>
        <mxCell id="3AsOJ7ozK4heC9LJ-4Nu-397" value="Planta 8-9" style="text;html=1;align=center;verticalAlign=middle;whiteSpace=wrap;rounded=0;" vertex="1" parent="1">
          <mxGeometry x="-639.5" y="440" width="60" height="30" as="geometry" />
        </mxCell>
        <mxCell id="3AsOJ7ozK4heC9LJ-4Nu-398" value="planta 10" style="text;html=1;align=center;verticalAlign=middle;whiteSpace=wrap;rounded=0;" vertex="1" parent="1">
          <mxGeometry x="-639.5" width="60" height="30" as="geometry" />
        </mxCell>
        <mxCell id="3AsOJ7ozK4heC9LJ-4Nu-399" value="" style="endArrow=none;dashed=1;html=1;rounded=0;exitX=1;exitY=0;exitDx=0;exitDy=0;exitPerimeter=0;entryX=0.95;entryY=0.94;entryDx=0;entryDy=0;entryPerimeter=0;" edge="1" parent="1" source="3AsOJ7ozK4heC9LJ-4Nu-390" target="3AsOJ7ozK4heC9LJ-4Nu-382">
          <mxGeometry width="50" height="50" relative="1" as="geometry">
            <mxPoint x="-240" y="2880" as="sourcePoint" />
            <mxPoint x="-150" y="1650" as="targetPoint" />
          </mxGeometry>
        </mxCell>
        <mxCell id="3AsOJ7ozK4heC9LJ-4Nu-400" value="" style="endArrow=none;dashed=1;html=1;dashPattern=1 3;strokeWidth=2;rounded=0;exitX=0.98;exitY=0.5;exitDx=0;exitDy=0;exitPerimeter=0;entryX=0.5;entryY=1;entryDx=0;entryDy=0;entryPerimeter=0;" edge="1" parent="1" source="3AsOJ7ozK4heC9LJ-4Nu-389" target="3AsOJ7ozK4heC9LJ-4Nu-382">
          <mxGeometry width="50" height="50" relative="1" as="geometry">
            <mxPoint x="-340" y="2130" as="sourcePoint" />
            <mxPoint x="-300" y="1370" as="targetPoint" />
          </mxGeometry>
        </mxCell>
        <mxCell id="3AsOJ7ozK4heC9LJ-4Nu-401" value="" style="endArrow=none;dashed=1;html=1;dashPattern=1 3;strokeWidth=2;rounded=0;exitX=1;exitY=0;exitDx=0;exitDy=0;exitPerimeter=0;entryX=0;entryY=1;entryDx=0;entryDy=0;entryPerimeter=0;" edge="1" parent="1" source="3AsOJ7ozK4heC9LJ-4Nu-385" target="3AsOJ7ozK4heC9LJ-4Nu-382">
          <mxGeometry width="50" height="50" relative="1" as="geometry">
            <mxPoint x="-380" y="1400" as="sourcePoint" />
            <mxPoint x="-310" y="1260" as="targetPoint" />
          </mxGeometry>
        </mxCell>
        <mxCell id="3AsOJ7ozK4heC9LJ-4Nu-402" value="" style="endArrow=none;dashed=1;html=1;dashPattern=1 3;strokeWidth=2;rounded=0;exitX=0.98;exitY=0.5;exitDx=0;exitDy=0;exitPerimeter=0;entryX=0;entryY=0.5;entryDx=0;entryDy=0;entryPerimeter=0;" edge="1" parent="1" source="3AsOJ7ozK4heC9LJ-4Nu-388" target="3AsOJ7ozK4heC9LJ-4Nu-382">
          <mxGeometry width="50" height="50" relative="1" as="geometry">
            <mxPoint x="-350" y="1100" as="sourcePoint" />
            <mxPoint x="-300" y="1050" as="targetPoint" />
          </mxGeometry>
        </mxCell>
        <mxCell id="3AsOJ7ozK4heC9LJ-4Nu-403" value="" style="endArrow=none;dashed=1;html=1;dashPattern=1 3;strokeWidth=2;rounded=0;entryX=1;entryY=0.5;entryDx=0;entryDy=0;entryPerimeter=0;exitX=0;exitY=0.5;exitDx=0;exitDy=0;exitPerimeter=0;" edge="1" parent="1" source="3AsOJ7ozK4heC9LJ-4Nu-379" target="3AsOJ7ozK4heC9LJ-4Nu-382">
          <mxGeometry width="50" height="50" relative="1" as="geometry">
            <mxPoint x="-350" y="1100" as="sourcePoint" />
            <mxPoint x="-300" y="1050" as="targetPoint" />
          </mxGeometry>
        </mxCell>
        <mxCell id="3AsOJ7ozK4heC9LJ-4Nu-404" value="" style="endArrow=none;dashed=1;html=1;dashPattern=1 3;strokeWidth=2;rounded=0;exitX=0.87;exitY=0.74;exitDx=0;exitDy=0;exitPerimeter=0;entryX=0;entryY=0.041;entryDx=0;entryDy=0;entryPerimeter=0;" edge="1" parent="1" source="3AsOJ7ozK4heC9LJ-4Nu-384" target="3AsOJ7ozK4heC9LJ-4Nu-382">
          <mxGeometry width="50" height="50" relative="1" as="geometry">
            <mxPoint x="-350" y="1100" as="sourcePoint" />
            <mxPoint x="-300" y="1050" as="targetPoint" />
          </mxGeometry>
        </mxCell>
        <mxCell id="3AsOJ7ozK4heC9LJ-4Nu-405" value="" style="endArrow=none;dashed=1;html=1;dashPattern=1 3;strokeWidth=2;rounded=0;entryX=0.5;entryY=0;entryDx=0;entryDy=0;entryPerimeter=0;exitX=0.98;exitY=0.5;exitDx=0;exitDy=0;exitPerimeter=0;" edge="1" parent="1" source="3AsOJ7ozK4heC9LJ-4Nu-383" target="3AsOJ7ozK4heC9LJ-4Nu-382">
          <mxGeometry width="50" height="50" relative="1" as="geometry">
            <mxPoint x="-350" y="850" as="sourcePoint" />
            <mxPoint x="-300" y="800" as="targetPoint" />
          </mxGeometry>
        </mxCell>
        <mxCell id="3AsOJ7ozK4heC9LJ-4Nu-406" value="" style="shape=mxgraph.cisco.computers_and_peripherals.pc;sketch=0;html=1;pointerEvents=1;dashed=0;fillColor=#036897;strokeColor=#ffffff;strokeWidth=2;verticalLabelPosition=bottom;verticalAlign=top;align=center;outlineConnect=0;" vertex="1" parent="1">
          <mxGeometry x="-750" y="1050" width="58" height="50" as="geometry" />
        </mxCell>
        <mxCell id="3AsOJ7ozK4heC9LJ-4Nu-407" value="" style="shape=mxgraph.cisco.computers_and_peripherals.pc;sketch=0;html=1;pointerEvents=1;dashed=0;fillColor=#036897;strokeColor=#ffffff;strokeWidth=2;verticalLabelPosition=bottom;verticalAlign=top;align=center;outlineConnect=0;" vertex="1" parent="1">
          <mxGeometry x="-670" y="1090" width="58" height="50" as="geometry" />
        </mxCell>
        <mxCell id="3AsOJ7ozK4heC9LJ-4Nu-408" value="" style="shape=mxgraph.cisco.computers_and_peripherals.pc;sketch=0;html=1;pointerEvents=1;dashed=0;fillColor=#036897;strokeColor=#ffffff;strokeWidth=2;verticalLabelPosition=bottom;verticalAlign=top;align=center;outlineConnect=0;" vertex="1" parent="1">
          <mxGeometry x="-800" y="970" width="58" height="50" as="geometry" />
        </mxCell>
        <mxCell id="3AsOJ7ozK4heC9LJ-4Nu-409" value="" style="shape=mxgraph.cisco.computers_and_peripherals.pc;sketch=0;html=1;pointerEvents=1;dashed=0;fillColor=#036897;strokeColor=#ffffff;strokeWidth=2;verticalLabelPosition=bottom;verticalAlign=top;align=center;outlineConnect=0;" vertex="1" parent="1">
          <mxGeometry x="-808" y="887" width="58" height="50" as="geometry" />
        </mxCell>
        <mxCell id="3AsOJ7ozK4heC9LJ-4Nu-410" value="" style="shape=mxgraph.cisco.computers_and_peripherals.pc;sketch=0;html=1;pointerEvents=1;dashed=0;fillColor=#036897;strokeColor=#ffffff;strokeWidth=2;verticalLabelPosition=bottom;verticalAlign=top;align=center;outlineConnect=0;" vertex="1" parent="1">
          <mxGeometry x="-692" y="760" width="58" height="50" as="geometry" />
        </mxCell>
        <mxCell id="3AsOJ7ozK4heC9LJ-4Nu-411" value="" style="shape=mxgraph.cisco.computers_and_peripherals.pc;sketch=0;html=1;pointerEvents=1;dashed=0;fillColor=#036897;strokeColor=#ffffff;strokeWidth=2;verticalLabelPosition=bottom;verticalAlign=top;align=center;outlineConnect=0;" vertex="1" parent="1">
          <mxGeometry x="-670" y="616" width="58" height="50" as="geometry" />
        </mxCell>
        <mxCell id="3AsOJ7ozK4heC9LJ-4Nu-412" value="" style="shape=mxgraph.cisco.computers_and_peripherals.pc;sketch=0;html=1;pointerEvents=1;dashed=0;fillColor=#036897;strokeColor=#ffffff;strokeWidth=2;verticalLabelPosition=bottom;verticalAlign=top;align=center;outlineConnect=0;" vertex="1" parent="1">
          <mxGeometry x="-770" y="559" width="58" height="50" as="geometry" />
        </mxCell>
        <mxCell id="3AsOJ7ozK4heC9LJ-4Nu-413" value="" style="shape=mxgraph.cisco.computers_and_peripherals.pc;sketch=0;html=1;pointerEvents=1;dashed=0;fillColor=#036897;strokeColor=#ffffff;strokeWidth=2;verticalLabelPosition=bottom;verticalAlign=top;align=center;outlineConnect=0;" vertex="1" parent="1">
          <mxGeometry x="-770" y="390" width="58" height="50" as="geometry" />
        </mxCell>
        <mxCell id="3AsOJ7ozK4heC9LJ-4Nu-414" value="" style="shape=mxgraph.cisco.computers_and_peripherals.pc;sketch=0;html=1;pointerEvents=1;dashed=0;fillColor=#036897;strokeColor=#ffffff;strokeWidth=2;verticalLabelPosition=bottom;verticalAlign=top;align=center;outlineConnect=0;" vertex="1" parent="1">
          <mxGeometry x="-659.5" y="293" width="58" height="50" as="geometry" />
        </mxCell>
        <mxCell id="3AsOJ7ozK4heC9LJ-4Nu-415" value="" style="shape=mxgraph.cisco.computers_and_peripherals.pc;sketch=0;html=1;pointerEvents=1;dashed=0;fillColor=#036897;strokeColor=#ffffff;strokeWidth=2;verticalLabelPosition=bottom;verticalAlign=top;align=center;outlineConnect=0;" vertex="1" parent="1">
          <mxGeometry x="-540" y="340" width="58" height="50" as="geometry" />
        </mxCell>
        <mxCell id="3AsOJ7ozK4heC9LJ-4Nu-416" value="" style="shape=mxgraph.cisco.computers_and_peripherals.pc;sketch=0;html=1;pointerEvents=1;dashed=0;fillColor=#036897;strokeColor=#ffffff;strokeWidth=2;verticalLabelPosition=bottom;verticalAlign=top;align=center;outlineConnect=0;" vertex="1" parent="1">
          <mxGeometry x="-560" y="1040" width="58" height="50" as="geometry" />
        </mxCell>
        <mxCell id="3AsOJ7ozK4heC9LJ-4Nu-417" value="" style="endArrow=none;html=1;rounded=0;exitX=0.5;exitY=0.98;exitDx=0;exitDy=0;exitPerimeter=0;entryX=0.5;entryY=0;entryDx=0;entryDy=0;entryPerimeter=0;" edge="1" parent="1" source="3AsOJ7ozK4heC9LJ-4Nu-388" target="3AsOJ7ozK4heC9LJ-4Nu-416">
          <mxGeometry width="50" height="50" relative="1" as="geometry">
            <mxPoint x="-350" y="1000" as="sourcePoint" />
            <mxPoint x="-300" y="950" as="targetPoint" />
          </mxGeometry>
        </mxCell>
        <mxCell id="3AsOJ7ozK4heC9LJ-4Nu-418" value="" style="endArrow=none;html=1;rounded=0;exitX=0.5;exitY=0.98;exitDx=0;exitDy=0;exitPerimeter=0;entryX=0.5;entryY=0;entryDx=0;entryDy=0;entryPerimeter=0;" edge="1" parent="1" source="3AsOJ7ozK4heC9LJ-4Nu-388" target="3AsOJ7ozK4heC9LJ-4Nu-407">
          <mxGeometry width="50" height="50" relative="1" as="geometry">
            <mxPoint x="-350" y="1000" as="sourcePoint" />
            <mxPoint x="-300" y="950" as="targetPoint" />
          </mxGeometry>
        </mxCell>
        <mxCell id="3AsOJ7ozK4heC9LJ-4Nu-419" value="" style="endArrow=none;html=1;rounded=0;exitX=0.16;exitY=0.23;exitDx=0;exitDy=0;exitPerimeter=0;entryX=0.5;entryY=0;entryDx=0;entryDy=0;entryPerimeter=0;" edge="1" parent="1" source="3AsOJ7ozK4heC9LJ-4Nu-388" target="3AsOJ7ozK4heC9LJ-4Nu-406">
          <mxGeometry width="50" height="50" relative="1" as="geometry">
            <mxPoint x="-350" y="1000" as="sourcePoint" />
            <mxPoint x="-300" y="950" as="targetPoint" />
          </mxGeometry>
        </mxCell>
        <mxCell id="3AsOJ7ozK4heC9LJ-4Nu-420" value="" style="endArrow=none;html=1;rounded=0;exitX=0.83;exitY=0.5;exitDx=0;exitDy=0;exitPerimeter=0;entryX=0;entryY=0.98;entryDx=0;entryDy=0;entryPerimeter=0;" edge="1" parent="1" source="3AsOJ7ozK4heC9LJ-4Nu-408" target="3AsOJ7ozK4heC9LJ-4Nu-388">
          <mxGeometry width="50" height="50" relative="1" as="geometry">
            <mxPoint x="-350" y="1000" as="sourcePoint" />
            <mxPoint x="-300" y="950" as="targetPoint" />
          </mxGeometry>
        </mxCell>
        <mxCell id="3AsOJ7ozK4heC9LJ-4Nu-422" value="" style="endArrow=none;html=1;rounded=0;exitX=0.83;exitY=0.5;exitDx=0;exitDy=0;exitPerimeter=0;entryX=0.16;entryY=0.23;entryDx=0;entryDy=0;entryPerimeter=0;" edge="1" parent="1" source="3AsOJ7ozK4heC9LJ-4Nu-409" target="3AsOJ7ozK4heC9LJ-4Nu-388">
          <mxGeometry width="50" height="50" relative="1" as="geometry">
            <mxPoint x="-350" y="1000" as="sourcePoint" />
            <mxPoint x="-300" y="950" as="targetPoint" />
          </mxGeometry>
        </mxCell>
        <mxCell id="3AsOJ7ozK4heC9LJ-4Nu-423" value="" style="endArrow=none;html=1;rounded=0;exitX=0.86;exitY=0.85;exitDx=0;exitDy=0;exitPerimeter=0;entryX=0.5;entryY=0;entryDx=0;entryDy=0;entryPerimeter=0;" edge="1" parent="1" source="3AsOJ7ozK4heC9LJ-4Nu-410" target="3AsOJ7ozK4heC9LJ-4Nu-388">
          <mxGeometry width="50" height="50" relative="1" as="geometry">
            <mxPoint x="-350" y="1000" as="sourcePoint" />
            <mxPoint x="-300" y="950" as="targetPoint" />
          </mxGeometry>
        </mxCell>
        <mxCell id="3AsOJ7ozK4heC9LJ-4Nu-425" value="" style="endArrow=none;html=1;rounded=0;entryX=0.5;entryY=0.98;entryDx=0;entryDy=0;entryPerimeter=0;" edge="1" parent="1" source="3AsOJ7ozK4heC9LJ-4Nu-412" target="3AsOJ7ozK4heC9LJ-4Nu-384">
          <mxGeometry width="50" height="50" relative="1" as="geometry">
            <mxPoint x="-410" y="780" as="sourcePoint" />
            <mxPoint x="-360" y="730" as="targetPoint" />
          </mxGeometry>
        </mxCell>
        <mxCell id="3AsOJ7ozK4heC9LJ-4Nu-426" value="" style="endArrow=none;html=1;rounded=0;exitX=0.86;exitY=0.85;exitDx=0;exitDy=0;exitPerimeter=0;entryX=0.16;entryY=0.23;entryDx=0;entryDy=0;entryPerimeter=0;" edge="1" parent="1" source="3AsOJ7ozK4heC9LJ-4Nu-413" target="3AsOJ7ozK4heC9LJ-4Nu-384">
          <mxGeometry width="50" height="50" relative="1" as="geometry">
            <mxPoint x="-410" y="380" as="sourcePoint" />
            <mxPoint x="-360" y="330" as="targetPoint" />
          </mxGeometry>
        </mxCell>
        <mxCell id="3AsOJ7ozK4heC9LJ-4Nu-427" value="" style="endArrow=none;html=1;rounded=0;exitX=0.02;exitY=1;exitDx=0;exitDy=0;exitPerimeter=0;entryX=1;entryY=0;entryDx=0;entryDy=0;entryPerimeter=0;" edge="1" parent="1" source="3AsOJ7ozK4heC9LJ-4Nu-415" target="3AsOJ7ozK4heC9LJ-4Nu-384">
          <mxGeometry width="50" height="50" relative="1" as="geometry">
            <mxPoint x="-460" y="600" as="sourcePoint" />
            <mxPoint x="-410" y="550" as="targetPoint" />
          </mxGeometry>
        </mxCell>
        <mxCell id="3AsOJ7ozK4heC9LJ-4Nu-428" value="" style="endArrow=none;html=1;rounded=0;exitX=0.5;exitY=1;exitDx=0;exitDy=0;exitPerimeter=0;entryX=0.5;entryY=0;entryDx=0;entryDy=0;entryPerimeter=0;" edge="1" parent="1" source="3AsOJ7ozK4heC9LJ-4Nu-414" target="3AsOJ7ozK4heC9LJ-4Nu-384">
          <mxGeometry width="50" height="50" relative="1" as="geometry">
            <mxPoint x="-460" y="600" as="sourcePoint" />
            <mxPoint x="-410" y="550" as="targetPoint" />
          </mxGeometry>
        </mxCell>
        <mxCell id="3AsOJ7ozK4heC9LJ-4Nu-430" value="" style="shape=mxgraph.cisco.computers_and_peripherals.pc;sketch=0;html=1;pointerEvents=1;dashed=0;fillColor=#036897;strokeColor=#ffffff;strokeWidth=2;verticalLabelPosition=bottom;verticalAlign=top;align=center;outlineConnect=0;" vertex="1" parent="1">
          <mxGeometry x="-657.5" y="1300" width="58" height="50" as="geometry" />
        </mxCell>
        <mxCell id="3AsOJ7ozK4heC9LJ-4Nu-431" value="" style="shape=mxgraph.cisco.computers_and_peripherals.pc;sketch=0;html=1;pointerEvents=1;dashed=0;fillColor=#036897;strokeColor=#ffffff;strokeWidth=2;verticalLabelPosition=bottom;verticalAlign=top;align=center;outlineConnect=0;" vertex="1" parent="1">
          <mxGeometry x="-780" y="1330" width="58" height="50" as="geometry" />
        </mxCell>
        <mxCell id="3AsOJ7ozK4heC9LJ-4Nu-432" value="" style="shape=mxgraph.cisco.computers_and_peripherals.pc;sketch=0;html=1;pointerEvents=1;dashed=0;fillColor=#036897;strokeColor=#ffffff;strokeWidth=2;verticalLabelPosition=bottom;verticalAlign=top;align=center;outlineConnect=0;" vertex="1" parent="1">
          <mxGeometry x="-790" y="1460" width="58" height="50" as="geometry" />
        </mxCell>
        <mxCell id="3AsOJ7ozK4heC9LJ-4Nu-433" value="" style="shape=mxgraph.cisco.computers_and_peripherals.pc;sketch=0;html=1;pointerEvents=1;dashed=0;fillColor=#036897;strokeColor=#ffffff;strokeWidth=2;verticalLabelPosition=bottom;verticalAlign=top;align=center;outlineConnect=0;" vertex="1" parent="1">
          <mxGeometry x="-722" y="1590" width="58" height="50" as="geometry" />
        </mxCell>
        <mxCell id="3AsOJ7ozK4heC9LJ-4Nu-434" value="" style="shape=mxgraph.cisco.computers_and_peripherals.pc;sketch=0;html=1;pointerEvents=1;dashed=0;fillColor=#036897;strokeColor=#ffffff;strokeWidth=2;verticalLabelPosition=bottom;verticalAlign=top;align=center;outlineConnect=0;" vertex="1" parent="1">
          <mxGeometry x="-579.5" y="1590" width="58" height="50" as="geometry" />
        </mxCell>
        <mxCell id="3AsOJ7ozK4heC9LJ-4Nu-435" value="" style="shape=mxgraph.cisco.computers_and_peripherals.pc;sketch=0;html=1;pointerEvents=1;dashed=0;fillColor=#036897;strokeColor=#ffffff;strokeWidth=2;verticalLabelPosition=bottom;verticalAlign=top;align=center;outlineConnect=0;" vertex="1" parent="1">
          <mxGeometry x="-488" y="1330" width="58" height="50" as="geometry" />
        </mxCell>
        <mxCell id="3AsOJ7ozK4heC9LJ-4Nu-436" value="" style="endArrow=none;html=1;rounded=0;entryX=0.02;entryY=1;entryDx=0;entryDy=0;entryPerimeter=0;exitX=1;exitY=0;exitDx=0;exitDy=0;exitPerimeter=0;" edge="1" parent="1" source="3AsOJ7ozK4heC9LJ-4Nu-385" target="3AsOJ7ozK4heC9LJ-4Nu-435">
          <mxGeometry width="50" height="50" relative="1" as="geometry">
            <mxPoint x="-580" y="1570" as="sourcePoint" />
            <mxPoint x="-530" y="1520" as="targetPoint" />
          </mxGeometry>
        </mxCell>
        <mxCell id="3AsOJ7ozK4heC9LJ-4Nu-437" value="" style="endArrow=none;html=1;rounded=0;exitX=0.87;exitY=0.74;exitDx=0;exitDy=0;exitPerimeter=0;entryX=0.5;entryY=0;entryDx=0;entryDy=0;entryPerimeter=0;" edge="1" parent="1" source="3AsOJ7ozK4heC9LJ-4Nu-385" target="3AsOJ7ozK4heC9LJ-4Nu-434">
          <mxGeometry width="50" height="50" relative="1" as="geometry">
            <mxPoint x="-580" y="1570" as="sourcePoint" />
            <mxPoint x="-530" y="1520" as="targetPoint" />
          </mxGeometry>
        </mxCell>
        <mxCell id="3AsOJ7ozK4heC9LJ-4Nu-438" value="" style="endArrow=none;html=1;rounded=0;" edge="1" parent="1" source="3AsOJ7ozK4heC9LJ-4Nu-385" target="3AsOJ7ozK4heC9LJ-4Nu-433">
          <mxGeometry width="50" height="50" relative="1" as="geometry">
            <mxPoint x="-580" y="1570" as="sourcePoint" />
            <mxPoint x="-530" y="1520" as="targetPoint" />
          </mxGeometry>
        </mxCell>
        <mxCell id="3AsOJ7ozK4heC9LJ-4Nu-439" value="" style="endArrow=none;html=1;rounded=0;exitX=0.86;exitY=0.85;exitDx=0;exitDy=0;exitPerimeter=0;entryX=0;entryY=0.98;entryDx=0;entryDy=0;entryPerimeter=0;" edge="1" parent="1" source="3AsOJ7ozK4heC9LJ-4Nu-432" target="3AsOJ7ozK4heC9LJ-4Nu-385">
          <mxGeometry width="50" height="50" relative="1" as="geometry">
            <mxPoint x="-580" y="1570" as="sourcePoint" />
            <mxPoint x="-530" y="1520" as="targetPoint" />
          </mxGeometry>
        </mxCell>
        <mxCell id="3AsOJ7ozK4heC9LJ-4Nu-440" value="" style="endArrow=none;html=1;rounded=0;exitX=0.86;exitY=0.85;exitDx=0;exitDy=0;exitPerimeter=0;entryX=0.16;entryY=0.23;entryDx=0;entryDy=0;entryPerimeter=0;" edge="1" parent="1" source="3AsOJ7ozK4heC9LJ-4Nu-431" target="3AsOJ7ozK4heC9LJ-4Nu-385">
          <mxGeometry width="50" height="50" relative="1" as="geometry">
            <mxPoint x="-580" y="1570" as="sourcePoint" />
            <mxPoint x="-530" y="1520" as="targetPoint" />
          </mxGeometry>
        </mxCell>
        <mxCell id="3AsOJ7ozK4heC9LJ-4Nu-441" value="" style="endArrow=none;html=1;rounded=0;exitX=0.5;exitY=1;exitDx=0;exitDy=0;exitPerimeter=0;entryX=0.5;entryY=0;entryDx=0;entryDy=0;entryPerimeter=0;" edge="1" parent="1" source="3AsOJ7ozK4heC9LJ-4Nu-430" target="3AsOJ7ozK4heC9LJ-4Nu-385">
          <mxGeometry width="50" height="50" relative="1" as="geometry">
            <mxPoint x="-580" y="1570" as="sourcePoint" />
            <mxPoint x="-530" y="1520" as="targetPoint" />
          </mxGeometry>
        </mxCell>
        <mxCell id="3AsOJ7ozK4heC9LJ-4Nu-442" value="" style="shape=mxgraph.cisco.computers_and_peripherals.pc;sketch=0;html=1;pointerEvents=1;dashed=0;fillColor=#036897;strokeColor=#ffffff;strokeWidth=2;verticalLabelPosition=bottom;verticalAlign=top;align=center;outlineConnect=0;" vertex="1" parent="1">
          <mxGeometry x="-521.5" y="140" width="58" height="50" as="geometry" />
        </mxCell>
        <mxCell id="3AsOJ7ozK4heC9LJ-4Nu-443" value="" style="shape=mxgraph.cisco.computers_and_peripherals.pc;sketch=0;html=1;pointerEvents=1;dashed=0;fillColor=#036897;strokeColor=#ffffff;strokeWidth=2;verticalLabelPosition=bottom;verticalAlign=top;align=center;outlineConnect=0;" vertex="1" parent="1">
          <mxGeometry x="-657.5" y="160" width="58" height="50" as="geometry" />
        </mxCell>
        <mxCell id="3AsOJ7ozK4heC9LJ-4Nu-444" value="" style="shape=mxgraph.cisco.computers_and_peripherals.pc;sketch=0;html=1;pointerEvents=1;dashed=0;fillColor=#036897;strokeColor=#ffffff;strokeWidth=2;verticalLabelPosition=bottom;verticalAlign=top;align=center;outlineConnect=0;" vertex="1" parent="1">
          <mxGeometry x="-521.5" y="-100" width="58" height="50" as="geometry" />
        </mxCell>
        <mxCell id="3AsOJ7ozK4heC9LJ-4Nu-445" value="" style="shape=mxgraph.cisco.computers_and_peripherals.pc;sketch=0;html=1;pointerEvents=1;dashed=0;fillColor=#036897;strokeColor=#ffffff;strokeWidth=2;verticalLabelPosition=bottom;verticalAlign=top;align=center;outlineConnect=0;" vertex="1" parent="1">
          <mxGeometry x="-430" width="58" height="50" as="geometry" />
        </mxCell>
        <mxCell id="3AsOJ7ozK4heC9LJ-4Nu-446" value="" style="shape=mxgraph.cisco.computers_and_peripherals.pc;sketch=0;html=1;pointerEvents=1;dashed=0;fillColor=#036897;strokeColor=#ffffff;strokeWidth=2;verticalLabelPosition=bottom;verticalAlign=top;align=center;outlineConnect=0;" vertex="1" parent="1">
          <mxGeometry x="-780" y="110" width="58" height="50" as="geometry" />
        </mxCell>
        <mxCell id="3AsOJ7ozK4heC9LJ-4Nu-447" value="" style="shape=mxgraph.cisco.computers_and_peripherals.pc;sketch=0;html=1;pointerEvents=1;dashed=0;fillColor=#036897;strokeColor=#ffffff;strokeWidth=2;verticalLabelPosition=bottom;verticalAlign=top;align=center;outlineConnect=0;" vertex="1" parent="1">
          <mxGeometry x="-770" y="-80" width="58" height="50" as="geometry" />
        </mxCell>
        <mxCell id="3AsOJ7ozK4heC9LJ-4Nu-448" value="" style="endArrow=none;html=1;rounded=0;entryX=0.5;entryY=0.98;entryDx=0;entryDy=0;entryPerimeter=0;exitX=0.647;exitY=0;exitDx=0;exitDy=0;exitPerimeter=0;" edge="1" parent="1" source="3AsOJ7ozK4heC9LJ-4Nu-443" target="3AsOJ7ozK4heC9LJ-4Nu-383">
          <mxGeometry width="50" height="50" relative="1" as="geometry">
            <mxPoint x="-630" y="160" as="sourcePoint" />
            <mxPoint x="-580" y="110" as="targetPoint" />
          </mxGeometry>
        </mxCell>
        <mxCell id="3AsOJ7ozK4heC9LJ-4Nu-449" value="" style="endArrow=none;html=1;rounded=0;entryX=0.87;entryY=0.74;entryDx=0;entryDy=0;entryPerimeter=0;" edge="1" parent="1" source="3AsOJ7ozK4heC9LJ-4Nu-442" target="3AsOJ7ozK4heC9LJ-4Nu-383">
          <mxGeometry width="50" height="50" relative="1" as="geometry">
            <mxPoint x="-620" y="160" as="sourcePoint" />
            <mxPoint x="-570" y="110" as="targetPoint" />
          </mxGeometry>
        </mxCell>
        <mxCell id="3AsOJ7ozK4heC9LJ-4Nu-450" value="" style="endArrow=none;html=1;rounded=0;entryX=1;entryY=0;entryDx=0;entryDy=0;entryPerimeter=0;exitX=0.16;exitY=0.5;exitDx=0;exitDy=0;exitPerimeter=0;" edge="1" parent="1" source="3AsOJ7ozK4heC9LJ-4Nu-445" target="3AsOJ7ozK4heC9LJ-4Nu-383">
          <mxGeometry width="50" height="50" relative="1" as="geometry">
            <mxPoint x="-620" y="160" as="sourcePoint" />
            <mxPoint x="-570" y="110" as="targetPoint" />
          </mxGeometry>
        </mxCell>
        <mxCell id="3AsOJ7ozK4heC9LJ-4Nu-451" value="" style="endArrow=none;html=1;rounded=0;entryX=0;entryY=0.98;entryDx=0;entryDy=0;entryPerimeter=0;" edge="1" parent="1" source="3AsOJ7ozK4heC9LJ-4Nu-446" target="3AsOJ7ozK4heC9LJ-4Nu-383">
          <mxGeometry width="50" height="50" relative="1" as="geometry">
            <mxPoint x="-620" y="160" as="sourcePoint" />
            <mxPoint x="-570" y="110" as="targetPoint" />
          </mxGeometry>
        </mxCell>
        <mxCell id="3AsOJ7ozK4heC9LJ-4Nu-452" value="" style="endArrow=none;html=1;rounded=0;exitX=0.86;exitY=0.85;exitDx=0;exitDy=0;exitPerimeter=0;entryX=0.16;entryY=0.23;entryDx=0;entryDy=0;entryPerimeter=0;" edge="1" parent="1" source="3AsOJ7ozK4heC9LJ-4Nu-447" target="3AsOJ7ozK4heC9LJ-4Nu-383">
          <mxGeometry width="50" height="50" relative="1" as="geometry">
            <mxPoint x="-620" y="160" as="sourcePoint" />
            <mxPoint x="-570" y="110" as="targetPoint" />
          </mxGeometry>
        </mxCell>
        <mxCell id="3AsOJ7ozK4heC9LJ-4Nu-453" value="" style="endArrow=none;html=1;rounded=0;exitX=0.02;exitY=1;exitDx=0;exitDy=0;exitPerimeter=0;entryX=0.5;entryY=0;entryDx=0;entryDy=0;entryPerimeter=0;" edge="1" parent="1" source="3AsOJ7ozK4heC9LJ-4Nu-444" target="3AsOJ7ozK4heC9LJ-4Nu-383">
          <mxGeometry width="50" height="50" relative="1" as="geometry">
            <mxPoint x="-620" y="160" as="sourcePoint" />
            <mxPoint x="-570" y="110" as="targetPoint" />
          </mxGeometry>
        </mxCell>
        <mxCell id="3AsOJ7ozK4heC9LJ-4Nu-454" value="" style="shape=mxgraph.cisco.computers_and_peripherals.pc;sketch=0;html=1;pointerEvents=1;dashed=0;fillColor=#036897;strokeColor=#ffffff;strokeWidth=2;verticalLabelPosition=bottom;verticalAlign=top;align=center;outlineConnect=0;" vertex="1" parent="1">
          <mxGeometry x="-692" y="1920" width="58" height="50" as="geometry" />
        </mxCell>
        <mxCell id="3AsOJ7ozK4heC9LJ-4Nu-455" value="" style="shape=mxgraph.cisco.computers_and_peripherals.pc;sketch=0;html=1;pointerEvents=1;dashed=0;fillColor=#036897;strokeColor=#ffffff;strokeWidth=2;verticalLabelPosition=bottom;verticalAlign=top;align=center;outlineConnect=0;" vertex="1" parent="1">
          <mxGeometry x="-800" y="1990" width="58" height="50" as="geometry" />
        </mxCell>
        <mxCell id="3AsOJ7ozK4heC9LJ-4Nu-456" value="" style="shape=mxgraph.cisco.computers_and_peripherals.pc;sketch=0;html=1;pointerEvents=1;dashed=0;fillColor=#036897;strokeColor=#ffffff;strokeWidth=2;verticalLabelPosition=bottom;verticalAlign=top;align=center;outlineConnect=0;" vertex="1" parent="1">
          <mxGeometry x="-800" y="2120" width="58" height="50" as="geometry" />
        </mxCell>
        <mxCell id="3AsOJ7ozK4heC9LJ-4Nu-457" value="" style="shape=mxgraph.cisco.computers_and_peripherals.pc;sketch=0;html=1;pointerEvents=1;dashed=0;fillColor=#036897;strokeColor=#ffffff;strokeWidth=2;verticalLabelPosition=bottom;verticalAlign=top;align=center;outlineConnect=0;" vertex="1" parent="1">
          <mxGeometry x="-540" y="2110" width="58" height="50" as="geometry" />
        </mxCell>
        <mxCell id="3AsOJ7ozK4heC9LJ-4Nu-458" value="" style="shape=mxgraph.cisco.computers_and_peripherals.pc;sketch=0;html=1;pointerEvents=1;dashed=0;fillColor=#036897;strokeColor=#ffffff;strokeWidth=2;verticalLabelPosition=bottom;verticalAlign=top;align=center;outlineConnect=0;" vertex="1" parent="1">
          <mxGeometry x="-579.5" y="2230" width="58" height="50" as="geometry" />
        </mxCell>
        <mxCell id="3AsOJ7ozK4heC9LJ-4Nu-459" value="" style="shape=mxgraph.cisco.computers_and_peripherals.pc;sketch=0;html=1;pointerEvents=1;dashed=0;fillColor=#036897;strokeColor=#ffffff;strokeWidth=2;verticalLabelPosition=bottom;verticalAlign=top;align=center;outlineConnect=0;" vertex="1" parent="1">
          <mxGeometry x="-750" y="2230" width="58" height="50" as="geometry" />
        </mxCell>
        <mxCell id="3AsOJ7ozK4heC9LJ-4Nu-460" value="" style="shape=mxgraph.cisco.computers_and_peripherals.pc;sketch=0;html=1;pointerEvents=1;dashed=0;fillColor=#036897;strokeColor=#ffffff;strokeWidth=2;verticalLabelPosition=bottom;verticalAlign=top;align=center;outlineConnect=0;" vertex="1" parent="1">
          <mxGeometry x="-770" y="2640" width="58" height="50" as="geometry" />
        </mxCell>
        <mxCell id="3AsOJ7ozK4heC9LJ-4Nu-461" value="" style="shape=mxgraph.cisco.computers_and_peripherals.pc;sketch=0;html=1;pointerEvents=1;dashed=0;fillColor=#036897;strokeColor=#ffffff;strokeWidth=2;verticalLabelPosition=bottom;verticalAlign=top;align=center;outlineConnect=0;" vertex="1" parent="1">
          <mxGeometry x="-664" y="2550" width="58" height="50" as="geometry" />
        </mxCell>
        <mxCell id="3AsOJ7ozK4heC9LJ-4Nu-462" value="" style="shape=mxgraph.cisco.computers_and_peripherals.pc;sketch=0;html=1;pointerEvents=1;dashed=0;fillColor=#036897;strokeColor=#ffffff;strokeWidth=2;verticalLabelPosition=bottom;verticalAlign=top;align=center;outlineConnect=0;" vertex="1" parent="1">
          <mxGeometry x="-770" y="2800" width="58" height="50" as="geometry" />
        </mxCell>
        <mxCell id="3AsOJ7ozK4heC9LJ-4Nu-463" value="" style="endArrow=none;html=1;rounded=0;exitX=0.86;exitY=0.85;exitDx=0;exitDy=0;exitPerimeter=0;entryX=0.16;entryY=0.23;entryDx=0;entryDy=0;entryPerimeter=0;" edge="1" parent="1" source="3AsOJ7ozK4heC9LJ-4Nu-460" target="3AsOJ7ozK4heC9LJ-4Nu-390">
          <mxGeometry width="50" height="50" relative="1" as="geometry">
            <mxPoint x="-690" y="2570" as="sourcePoint" />
            <mxPoint x="-640" y="2520" as="targetPoint" />
          </mxGeometry>
        </mxCell>
        <mxCell id="3AsOJ7ozK4heC9LJ-4Nu-464" value="" style="endArrow=none;html=1;rounded=0;exitX=0.5;exitY=1;exitDx=0;exitDy=0;exitPerimeter=0;entryX=0.5;entryY=0;entryDx=0;entryDy=0;entryPerimeter=0;" edge="1" parent="1" source="3AsOJ7ozK4heC9LJ-4Nu-461" target="3AsOJ7ozK4heC9LJ-4Nu-390">
          <mxGeometry width="50" height="50" relative="1" as="geometry">
            <mxPoint x="-690" y="2570" as="sourcePoint" />
            <mxPoint x="-640" y="2520" as="targetPoint" />
          </mxGeometry>
        </mxCell>
        <mxCell id="3AsOJ7ozK4heC9LJ-4Nu-465" value="" style="endArrow=none;html=1;rounded=0;exitX=0.86;exitY=0.85;exitDx=0;exitDy=0;exitPerimeter=0;entryX=0.5;entryY=0.98;entryDx=0;entryDy=0;entryPerimeter=0;" edge="1" parent="1" source="3AsOJ7ozK4heC9LJ-4Nu-462" target="3AsOJ7ozK4heC9LJ-4Nu-390">
          <mxGeometry width="50" height="50" relative="1" as="geometry">
            <mxPoint x="-690" y="2570" as="sourcePoint" />
            <mxPoint x="-640" y="2520" as="targetPoint" />
          </mxGeometry>
        </mxCell>
        <mxCell id="3AsOJ7ozK4heC9LJ-4Nu-466" value="" style="endArrow=none;html=1;rounded=0;exitX=0.86;exitY=0.85;exitDx=0;exitDy=0;exitPerimeter=0;" edge="1" parent="1" source="3AsOJ7ozK4heC9LJ-4Nu-456">
          <mxGeometry width="50" height="50" relative="1" as="geometry">
            <mxPoint x="-690" y="2140" as="sourcePoint" />
            <mxPoint x="-640" y="2090" as="targetPoint" />
          </mxGeometry>
        </mxCell>
        <mxCell id="3AsOJ7ozK4heC9LJ-4Nu-467" value="" style="endArrow=none;html=1;rounded=0;exitX=0.86;exitY=0.85;exitDx=0;exitDy=0;exitPerimeter=0;" edge="1" parent="1" source="3AsOJ7ozK4heC9LJ-4Nu-459">
          <mxGeometry width="50" height="50" relative="1" as="geometry">
            <mxPoint x="-690" y="2140" as="sourcePoint" />
            <mxPoint x="-640" y="2090" as="targetPoint" />
          </mxGeometry>
        </mxCell>
        <mxCell id="3AsOJ7ozK4heC9LJ-4Nu-468" value="" style="endArrow=none;html=1;rounded=0;" edge="1" parent="1" source="3AsOJ7ozK4heC9LJ-4Nu-458">
          <mxGeometry width="50" height="50" relative="1" as="geometry">
            <mxPoint x="-690" y="2140" as="sourcePoint" />
            <mxPoint x="-640" y="2090" as="targetPoint" />
          </mxGeometry>
        </mxCell>
        <mxCell id="3AsOJ7ozK4heC9LJ-4Nu-469" value="" style="endArrow=none;html=1;rounded=0;exitX=0.86;exitY=0.85;exitDx=0;exitDy=0;exitPerimeter=0;" edge="1" parent="1" source="3AsOJ7ozK4heC9LJ-4Nu-455">
          <mxGeometry width="50" height="50" relative="1" as="geometry">
            <mxPoint x="-690" y="2140" as="sourcePoint" />
            <mxPoint x="-640" y="2090" as="targetPoint" />
          </mxGeometry>
        </mxCell>
        <mxCell id="3AsOJ7ozK4heC9LJ-4Nu-470" value="" style="endArrow=none;html=1;rounded=0;exitX=0.5;exitY=1;exitDx=0;exitDy=0;exitPerimeter=0;" edge="1" parent="1" source="3AsOJ7ozK4heC9LJ-4Nu-454">
          <mxGeometry width="50" height="50" relative="1" as="geometry">
            <mxPoint x="-690" y="2140" as="sourcePoint" />
            <mxPoint x="-640" y="2090" as="targetPoint" />
          </mxGeometry>
        </mxCell>
        <mxCell id="3AsOJ7ozK4heC9LJ-4Nu-471" value="" style="shape=mxgraph.cisco.servers.fileserver;sketch=0;html=1;pointerEvents=1;dashed=0;fillColor=#036897;strokeColor=#ffffff;strokeWidth=2;verticalLabelPosition=bottom;verticalAlign=top;align=center;outlineConnect=0;" vertex="1" parent="1">
          <mxGeometry x="-300" y="-86" width="43" height="62" as="geometry" />
        </mxCell>
        <mxCell id="3AsOJ7ozK4heC9LJ-4Nu-472" value="" style="shape=mxgraph.cisco.servers.fileserver;sketch=0;html=1;pointerEvents=1;dashed=0;fillColor=#036897;strokeColor=#ffffff;strokeWidth=2;verticalLabelPosition=bottom;verticalAlign=top;align=center;outlineConnect=0;" vertex="1" parent="1">
          <mxGeometry x="-320" y="148" width="43" height="62" as="geometry" />
        </mxCell>
        <mxCell id="3AsOJ7ozK4heC9LJ-4Nu-473" value="" style="shape=mxgraph.cisco.servers.fileserver;sketch=0;html=1;pointerEvents=1;dashed=0;fillColor=#036897;strokeColor=#ffffff;strokeWidth=2;verticalLabelPosition=bottom;verticalAlign=top;align=center;outlineConnect=0;" vertex="1" parent="1">
          <mxGeometry x="-270" y="40" width="43" height="62" as="geometry" />
        </mxCell>
        <mxCell id="3AsOJ7ozK4heC9LJ-4Nu-474" value="" style="shape=mxgraph.cisco.servers.fileserver;sketch=0;html=1;pointerEvents=1;dashed=0;fillColor=#036897;strokeColor=#ffffff;strokeWidth=2;verticalLabelPosition=bottom;verticalAlign=top;align=center;outlineConnect=0;" vertex="1" parent="1">
          <mxGeometry x="-343" y="-190" width="43" height="62" as="geometry" />
        </mxCell>
        <mxCell id="3AsOJ7ozK4heC9LJ-4Nu-475" value="" style="endArrow=none;html=1;rounded=0;exitX=0.87;exitY=0.74;exitDx=0;exitDy=0;exitPerimeter=0;entryX=0;entryY=0.5;entryDx=0;entryDy=0;entryPerimeter=0;" edge="1" parent="1" source="3AsOJ7ozK4heC9LJ-4Nu-383" target="3AsOJ7ozK4heC9LJ-4Nu-472">
          <mxGeometry width="50" height="50" relative="1" as="geometry">
            <mxPoint x="-390" y="190" as="sourcePoint" />
            <mxPoint x="-340" y="140" as="targetPoint" />
          </mxGeometry>
        </mxCell>
        <mxCell id="3AsOJ7ozK4heC9LJ-4Nu-476" value="" style="endArrow=none;html=1;rounded=0;exitX=0.98;exitY=0.5;exitDx=0;exitDy=0;exitPerimeter=0;entryX=0;entryY=0.5;entryDx=0;entryDy=0;entryPerimeter=0;" edge="1" parent="1" source="3AsOJ7ozK4heC9LJ-4Nu-383" target="3AsOJ7ozK4heC9LJ-4Nu-473">
          <mxGeometry width="50" height="50" relative="1" as="geometry">
            <mxPoint x="-390" y="190" as="sourcePoint" />
            <mxPoint x="-340" y="140" as="targetPoint" />
          </mxGeometry>
        </mxCell>
        <mxCell id="3AsOJ7ozK4heC9LJ-4Nu-478" value="" style="endArrow=none;html=1;rounded=0;exitX=0.98;exitY=0.5;exitDx=0;exitDy=0;exitPerimeter=0;entryX=0;entryY=0.5;entryDx=0;entryDy=0;entryPerimeter=0;" edge="1" parent="1" source="3AsOJ7ozK4heC9LJ-4Nu-383" target="3AsOJ7ozK4heC9LJ-4Nu-471">
          <mxGeometry width="50" height="50" relative="1" as="geometry">
            <mxPoint x="-390" y="190" as="sourcePoint" />
            <mxPoint x="-340" y="140" as="targetPoint" />
          </mxGeometry>
        </mxCell>
        <mxCell id="3AsOJ7ozK4heC9LJ-4Nu-479" value="" style="endArrow=none;html=1;rounded=0;exitX=0.5;exitY=0;exitDx=0;exitDy=0;exitPerimeter=0;entryX=0;entryY=0.5;entryDx=0;entryDy=0;entryPerimeter=0;" edge="1" parent="1" source="3AsOJ7ozK4heC9LJ-4Nu-383" target="3AsOJ7ozK4heC9LJ-4Nu-474">
          <mxGeometry width="50" height="50" relative="1" as="geometry">
            <mxPoint x="-390" y="110" as="sourcePoint" />
            <mxPoint x="-340" y="60" as="targetPoint" />
          </mxGeometry>
        </mxCell>
        <mxCell id="3AsOJ7ozK4heC9LJ-4Nu-480" value="" style="shape=mxgraph.cisco.misc.access_point;sketch=0;html=1;pointerEvents=1;dashed=0;fillColor=#036897;strokeColor=#ffffff;strokeWidth=2;verticalLabelPosition=bottom;verticalAlign=top;align=center;outlineConnect=0;" vertex="1" parent="1">
          <mxGeometry x="-650" y="-110" width="65" height="24" as="geometry" />
        </mxCell>
        <mxCell id="3AsOJ7ozK4heC9LJ-4Nu-481" value="" style="endArrow=none;html=1;rounded=0;exitX=0.5;exitY=0;exitDx=0;exitDy=0;exitPerimeter=0;entryX=0.5;entryY=0.985;entryDx=0;entryDy=0;entryPerimeter=0;" edge="1" parent="1" source="3AsOJ7ozK4heC9LJ-4Nu-383" target="3AsOJ7ozK4heC9LJ-4Nu-480">
          <mxGeometry width="50" height="50" relative="1" as="geometry">
            <mxPoint x="-390" y="110" as="sourcePoint" />
            <mxPoint x="-340" y="60" as="targetPoint" />
          </mxGeometry>
        </mxCell>
        <mxCell id="3AsOJ7ozK4heC9LJ-4Nu-482" value="" style="shape=mxgraph.cisco.computers_and_peripherals.video_camera;sketch=0;html=1;pointerEvents=1;dashed=0;fillColor=#036897;strokeColor=#ffffff;strokeWidth=2;verticalLabelPosition=bottom;verticalAlign=top;align=center;outlineConnect=0;" vertex="1" parent="1">
          <mxGeometry x="-578.5" y="240" width="57" height="68" as="geometry" />
        </mxCell>
        <mxCell id="3AsOJ7ozK4heC9LJ-4Nu-483" value="" style="shape=mxgraph.cisco.modems_and_phones.hootphone;sketch=0;html=1;pointerEvents=1;dashed=0;fillColor=#036897;strokeColor=#ffffff;strokeWidth=2;verticalLabelPosition=bottom;verticalAlign=top;align=center;outlineConnect=0;" vertex="1" parent="1">
          <mxGeometry x="-742" y="320" width="44" height="36" as="geometry" />
        </mxCell>
        <mxCell id="3AsOJ7ozK4heC9LJ-4Nu-484" value="" style="endArrow=none;html=1;rounded=0;" edge="1" parent="1" source="3AsOJ7ozK4heC9LJ-4Nu-384" target="3AsOJ7ozK4heC9LJ-4Nu-483">
          <mxGeometry width="50" height="50" relative="1" as="geometry">
            <mxPoint x="-390" y="610" as="sourcePoint" />
            <mxPoint x="-340" y="560" as="targetPoint" />
          </mxGeometry>
        </mxCell>
        <mxCell id="3AsOJ7ozK4heC9LJ-4Nu-486" value="" style="endArrow=none;html=1;rounded=0;" edge="1" parent="1" source="3AsOJ7ozK4heC9LJ-4Nu-414" target="3AsOJ7ozK4heC9LJ-4Nu-482">
          <mxGeometry width="50" height="50" relative="1" as="geometry">
            <mxPoint x="-390" y="610" as="sourcePoint" />
            <mxPoint x="-340" y="560" as="targetPoint" />
          </mxGeometry>
        </mxCell>
        <mxCell id="3AsOJ7ozK4heC9LJ-4Nu-487" value="" style="shape=mxgraph.cisco.modems_and_phones.hootphone;sketch=0;html=1;pointerEvents=1;dashed=0;fillColor=#036897;strokeColor=#ffffff;strokeWidth=2;verticalLabelPosition=bottom;verticalAlign=top;align=center;outlineConnect=0;" vertex="1" parent="1">
          <mxGeometry x="-553" y="-146" width="44" height="36" as="geometry" />
        </mxCell>
        <mxCell id="3AsOJ7ozK4heC9LJ-4Nu-488" value="" style="shape=mxgraph.cisco.computers_and_peripherals.video_camera;sketch=0;html=1;pointerEvents=1;dashed=0;fillColor=#036897;strokeColor=#ffffff;strokeWidth=2;verticalLabelPosition=bottom;verticalAlign=top;align=center;outlineConnect=0;" vertex="1" parent="1">
          <mxGeometry x="-722" y="-214" width="57" height="68" as="geometry" />
        </mxCell>
        <mxCell id="3AsOJ7ozK4heC9LJ-4Nu-489" value="" style="endArrow=none;html=1;rounded=0;entryX=1;entryY=0;entryDx=0;entryDy=0;entryPerimeter=0;" edge="1" parent="1" source="3AsOJ7ozK4heC9LJ-4Nu-487" target="3AsOJ7ozK4heC9LJ-4Nu-383">
          <mxGeometry width="50" height="50" relative="1" as="geometry">
            <mxPoint x="-390" y="-10" as="sourcePoint" />
            <mxPoint x="-340" y="-60" as="targetPoint" />
          </mxGeometry>
        </mxCell>
        <mxCell id="3AsOJ7ozK4heC9LJ-4Nu-490" value="" style="endArrow=none;html=1;rounded=0;exitX=0.5;exitY=0;exitDx=0;exitDy=0;exitPerimeter=0;entryX=0.46;entryY=1;entryDx=0;entryDy=0;entryPerimeter=0;" edge="1" parent="1" source="3AsOJ7ozK4heC9LJ-4Nu-447" target="3AsOJ7ozK4heC9LJ-4Nu-488">
          <mxGeometry width="50" height="50" relative="1" as="geometry">
            <mxPoint x="-390" y="-10" as="sourcePoint" />
            <mxPoint x="-340" y="-60" as="targetPoint" />
          </mxGeometry>
        </mxCell>
        <mxCell id="3AsOJ7ozK4heC9LJ-4Nu-491" value="DHCP" style="text;html=1;align=center;verticalAlign=middle;whiteSpace=wrap;rounded=0;" vertex="1" parent="1">
          <mxGeometry x="-240" y="10" width="60" height="30" as="geometry" />
        </mxCell>
        <mxCell id="3AsOJ7ozK4heC9LJ-4Nu-492" value="Streaming" style="text;html=1;align=center;verticalAlign=middle;whiteSpace=wrap;rounded=0;" vertex="1" parent="1">
          <mxGeometry x="-330" y="118" width="60" height="30" as="geometry" />
        </mxCell>
        <mxCell id="3AsOJ7ozK4heC9LJ-4Nu-493" value="Base de Datos" style="text;html=1;align=center;verticalAlign=middle;whiteSpace=wrap;rounded=0;" vertex="1" parent="1">
          <mxGeometry x="-287" y="-120" width="60" height="30" as="geometry" />
        </mxCell>
        <mxCell id="3AsOJ7ozK4heC9LJ-4Nu-494" value="Server PT" style="text;html=1;align=center;verticalAlign=middle;whiteSpace=wrap;rounded=0;" vertex="1" parent="1">
          <mxGeometry x="-343" y="-230" width="60" height="30" as="geometry" />
        </mxCell>
        <mxCell id="3AsOJ7ozK4heC9LJ-4Nu-495" value="" style="shape=mxgraph.cisco.modems_and_phones.hootphone;sketch=0;html=1;pointerEvents=1;dashed=0;fillColor=#036897;strokeColor=#ffffff;strokeWidth=2;verticalLabelPosition=bottom;verticalAlign=top;align=center;outlineConnect=0;" vertex="1" parent="1">
          <mxGeometry x="-507.5" y="440" width="44" height="36" as="geometry" />
        </mxCell>
        <mxCell id="3AsOJ7ozK4heC9LJ-4Nu-496" value="" style="endArrow=none;html=1;rounded=0;exitX=0.98;exitY=0.5;exitDx=0;exitDy=0;exitPerimeter=0;entryX=0;entryY=1;entryDx=0;entryDy=0;entryPerimeter=0;" edge="1" parent="1" source="3AsOJ7ozK4heC9LJ-4Nu-384" target="3AsOJ7ozK4heC9LJ-4Nu-495">
          <mxGeometry width="50" height="50" relative="1" as="geometry">
            <mxPoint x="-340" y="590" as="sourcePoint" />
            <mxPoint x="-290" y="540" as="targetPoint" />
          </mxGeometry>
        </mxCell>
        <mxCell id="3AsOJ7ozK4heC9LJ-4Nu-497" value="" style="shape=mxgraph.cisco.misc.access_point;sketch=0;html=1;pointerEvents=1;dashed=0;fillColor=#036897;strokeColor=#ffffff;strokeWidth=2;verticalLabelPosition=bottom;verticalAlign=top;align=center;outlineConnect=0;" vertex="1" parent="1">
          <mxGeometry x="-586.5" y="629" width="65" height="24" as="geometry" />
        </mxCell>
        <mxCell id="3AsOJ7ozK4heC9LJ-4Nu-498" value="" style="endArrow=none;html=1;rounded=0;exitX=0.5;exitY=0;exitDx=0;exitDy=0;exitPerimeter=0;entryX=0.5;entryY=0.98;entryDx=0;entryDy=0;entryPerimeter=0;" edge="1" parent="1" source="3AsOJ7ozK4heC9LJ-4Nu-497" target="3AsOJ7ozK4heC9LJ-4Nu-384">
          <mxGeometry width="50" height="50" relative="1" as="geometry">
            <mxPoint x="-340" y="590" as="sourcePoint" />
            <mxPoint x="-290" y="540" as="targetPoint" />
          </mxGeometry>
        </mxCell>
        <mxCell id="3AsOJ7ozK4heC9LJ-4Nu-499" value="" style="shape=mxgraph.cisco.computers_and_peripherals.video_camera;sketch=0;html=1;pointerEvents=1;dashed=0;fillColor=#036897;strokeColor=#ffffff;strokeWidth=2;verticalLabelPosition=bottom;verticalAlign=top;align=center;outlineConnect=0;" vertex="1" parent="1">
          <mxGeometry x="-420" y="293" width="57" height="68" as="geometry" />
        </mxCell>
        <mxCell id="3AsOJ7ozK4heC9LJ-4Nu-500" value="" style="endArrow=none;html=1;rounded=0;entryX=0;entryY=0.88;entryDx=0;entryDy=0;entryPerimeter=0;" edge="1" parent="1" source="3AsOJ7ozK4heC9LJ-4Nu-415" target="3AsOJ7ozK4heC9LJ-4Nu-499">
          <mxGeometry width="50" height="50" relative="1" as="geometry">
            <mxPoint x="-340" y="440" as="sourcePoint" />
            <mxPoint x="-290" y="390" as="targetPoint" />
          </mxGeometry>
        </mxCell>
        <mxCell id="3AsOJ7ozK4heC9LJ-4Nu-501" value="" style="shape=mxgraph.cisco.modems_and_phones.hootphone;sketch=0;html=1;pointerEvents=1;dashed=0;fillColor=#036897;strokeColor=#ffffff;strokeWidth=2;verticalLabelPosition=bottom;verticalAlign=top;align=center;outlineConnect=0;" vertex="1" parent="1">
          <mxGeometry x="-463.5" y="820" width="44" height="36" as="geometry" />
        </mxCell>
        <mxCell id="3AsOJ7ozK4heC9LJ-4Nu-502" value="" style="shape=mxgraph.cisco.modems_and_phones.hootphone;sketch=0;html=1;pointerEvents=1;dashed=0;fillColor=#036897;strokeColor=#ffffff;strokeWidth=2;verticalLabelPosition=bottom;verticalAlign=top;align=center;outlineConnect=0;" vertex="1" parent="1">
          <mxGeometry x="-540" y="760" width="44" height="36" as="geometry" />
        </mxCell>
        <mxCell id="3AsOJ7ozK4heC9LJ-4Nu-503" value="" style="endArrow=none;html=1;rounded=0;exitX=1;exitY=0;exitDx=0;exitDy=0;exitPerimeter=0;entryX=0;entryY=1;entryDx=0;entryDy=0;entryPerimeter=0;" edge="1" parent="1" source="3AsOJ7ozK4heC9LJ-4Nu-388" target="3AsOJ7ozK4heC9LJ-4Nu-501">
          <mxGeometry width="50" height="50" relative="1" as="geometry">
            <mxPoint x="-410" y="1090" as="sourcePoint" />
            <mxPoint x="-360" y="1040" as="targetPoint" />
          </mxGeometry>
        </mxCell>
        <mxCell id="3AsOJ7ozK4heC9LJ-4Nu-504" value="" style="endArrow=none;html=1;rounded=0;exitX=0.5;exitY=0;exitDx=0;exitDy=0;exitPerimeter=0;entryX=0;entryY=1;entryDx=0;entryDy=0;entryPerimeter=0;" edge="1" parent="1" source="3AsOJ7ozK4heC9LJ-4Nu-388" target="3AsOJ7ozK4heC9LJ-4Nu-502">
          <mxGeometry width="50" height="50" relative="1" as="geometry">
            <mxPoint x="-410" y="1090" as="sourcePoint" />
            <mxPoint x="-360" y="1040" as="targetPoint" />
          </mxGeometry>
        </mxCell>
        <mxCell id="3AsOJ7ozK4heC9LJ-4Nu-505" value="" style="shape=mxgraph.cisco.computers_and_peripherals.video_camera;sketch=0;html=1;pointerEvents=1;dashed=0;fillColor=#036897;strokeColor=#ffffff;strokeWidth=2;verticalLabelPosition=bottom;verticalAlign=top;align=center;outlineConnect=0;" vertex="1" parent="1">
          <mxGeometry x="-769" y="692" width="57" height="68" as="geometry" />
        </mxCell>
        <mxCell id="3AsOJ7ozK4heC9LJ-4Nu-506" value="" style="shape=mxgraph.cisco.computers_and_peripherals.video_camera;sketch=0;html=1;pointerEvents=1;dashed=0;fillColor=#036897;strokeColor=#ffffff;strokeWidth=2;verticalLabelPosition=bottom;verticalAlign=top;align=center;outlineConnect=0;" vertex="1" parent="1">
          <mxGeometry x="-808" y="788" width="57" height="68" as="geometry" />
        </mxCell>
        <mxCell id="3AsOJ7ozK4heC9LJ-4Nu-509" value="" style="endArrow=none;html=1;rounded=0;exitX=0.5;exitY=0;exitDx=0;exitDy=0;exitPerimeter=0;entryX=0.46;entryY=1;entryDx=0;entryDy=0;entryPerimeter=0;" edge="1" parent="1" source="3AsOJ7ozK4heC9LJ-4Nu-409" target="3AsOJ7ozK4heC9LJ-4Nu-506">
          <mxGeometry width="50" height="50" relative="1" as="geometry">
            <mxPoint x="-410" y="770" as="sourcePoint" />
            <mxPoint x="-360" y="720" as="targetPoint" />
          </mxGeometry>
        </mxCell>
        <mxCell id="3AsOJ7ozK4heC9LJ-4Nu-510" value="" style="endArrow=none;html=1;rounded=0;exitX=0.5;exitY=0;exitDx=0;exitDy=0;exitPerimeter=0;entryX=0.91;entryY=0.88;entryDx=0;entryDy=0;entryPerimeter=0;" edge="1" parent="1" source="3AsOJ7ozK4heC9LJ-4Nu-410" target="3AsOJ7ozK4heC9LJ-4Nu-505">
          <mxGeometry width="50" height="50" relative="1" as="geometry">
            <mxPoint x="-410" y="770" as="sourcePoint" />
            <mxPoint x="-360" y="720" as="targetPoint" />
          </mxGeometry>
        </mxCell>
        <mxCell id="3AsOJ7ozK4heC9LJ-4Nu-511" value="" style="shape=mxgraph.cisco.computers_and_peripherals.video_camera;sketch=0;html=1;pointerEvents=1;dashed=0;fillColor=#036897;strokeColor=#ffffff;strokeWidth=2;verticalLabelPosition=bottom;verticalAlign=top;align=center;outlineConnect=0;" vertex="1" parent="1">
          <mxGeometry x="-780" y="1210" width="57" height="68" as="geometry" />
        </mxCell>
        <mxCell id="3AsOJ7ozK4heC9LJ-4Nu-512" value="" style="shape=mxgraph.cisco.computers_and_peripherals.video_camera;sketch=0;html=1;pointerEvents=1;dashed=0;fillColor=#036897;strokeColor=#ffffff;strokeWidth=2;verticalLabelPosition=bottom;verticalAlign=top;align=center;outlineConnect=0;" vertex="1" parent="1">
          <mxGeometry x="-691" y="1160" width="57" height="68" as="geometry" />
        </mxCell>
        <mxCell id="3AsOJ7ozK4heC9LJ-4Nu-513" value="" style="endArrow=none;html=1;rounded=0;exitX=0.5;exitY=0;exitDx=0;exitDy=0;exitPerimeter=0;entryX=0.46;entryY=1;entryDx=0;entryDy=0;entryPerimeter=0;" edge="1" parent="1" source="3AsOJ7ozK4heC9LJ-4Nu-431" target="3AsOJ7ozK4heC9LJ-4Nu-511">
          <mxGeometry width="50" height="50" relative="1" as="geometry">
            <mxPoint x="-410" y="1240" as="sourcePoint" />
            <mxPoint x="-360" y="1190" as="targetPoint" />
          </mxGeometry>
        </mxCell>
        <mxCell id="3AsOJ7ozK4heC9LJ-4Nu-516" value="" style="endArrow=none;html=1;rounded=0;exitX=0.46;exitY=1;exitDx=0;exitDy=0;exitPerimeter=0;entryX=0.5;entryY=0;entryDx=0;entryDy=0;entryPerimeter=0;" edge="1" parent="1" source="3AsOJ7ozK4heC9LJ-4Nu-512" target="3AsOJ7ozK4heC9LJ-4Nu-430">
          <mxGeometry width="50" height="50" relative="1" as="geometry">
            <mxPoint x="-410" y="1240" as="sourcePoint" />
            <mxPoint x="-360" y="1190" as="targetPoint" />
          </mxGeometry>
        </mxCell>
        <mxCell id="3AsOJ7ozK4heC9LJ-4Nu-517" value="" style="shape=mxgraph.cisco.computers_and_peripherals.video_camera;sketch=0;html=1;pointerEvents=1;dashed=0;fillColor=#036897;strokeColor=#ffffff;strokeWidth=2;verticalLabelPosition=bottom;verticalAlign=top;align=center;outlineConnect=0;" vertex="1" parent="1">
          <mxGeometry x="-799" y="1860" width="57" height="68" as="geometry" />
        </mxCell>
        <mxCell id="3AsOJ7ozK4heC9LJ-4Nu-518" value="" style="shape=mxgraph.cisco.computers_and_peripherals.video_camera;sketch=0;html=1;pointerEvents=1;dashed=0;fillColor=#036897;strokeColor=#ffffff;strokeWidth=2;verticalLabelPosition=bottom;verticalAlign=top;align=center;outlineConnect=0;" vertex="1" parent="1">
          <mxGeometry x="-707" y="1740" width="57" height="68" as="geometry" />
        </mxCell>
        <mxCell id="3AsOJ7ozK4heC9LJ-4Nu-519" value="" style="endArrow=none;html=1;rounded=0;exitX=0.46;exitY=1;exitDx=0;exitDy=0;exitPerimeter=0;entryX=0.5;entryY=0;entryDx=0;entryDy=0;entryPerimeter=0;" edge="1" parent="1" source="3AsOJ7ozK4heC9LJ-4Nu-518" target="3AsOJ7ozK4heC9LJ-4Nu-454">
          <mxGeometry width="50" height="50" relative="1" as="geometry">
            <mxPoint x="-410" y="1820" as="sourcePoint" />
            <mxPoint x="-360" y="1770" as="targetPoint" />
          </mxGeometry>
        </mxCell>
        <mxCell id="3AsOJ7ozK4heC9LJ-4Nu-520" value="" style="endArrow=none;html=1;rounded=0;exitX=0.46;exitY=1;exitDx=0;exitDy=0;exitPerimeter=0;entryX=0.5;entryY=0;entryDx=0;entryDy=0;entryPerimeter=0;" edge="1" parent="1" source="3AsOJ7ozK4heC9LJ-4Nu-517" target="3AsOJ7ozK4heC9LJ-4Nu-455">
          <mxGeometry width="50" height="50" relative="1" as="geometry">
            <mxPoint x="-410" y="1820" as="sourcePoint" />
            <mxPoint x="-770" y="1980" as="targetPoint" />
          </mxGeometry>
        </mxCell>
        <mxCell id="3AsOJ7ozK4heC9LJ-4Nu-521" value="" style="shape=mxgraph.cisco.modems_and_phones.hootphone;sketch=0;html=1;pointerEvents=1;dashed=0;fillColor=#036897;strokeColor=#ffffff;strokeWidth=2;verticalLabelPosition=bottom;verticalAlign=top;align=center;outlineConnect=0;" vertex="1" parent="1">
          <mxGeometry x="-444" y="1242" width="44" height="36" as="geometry" />
        </mxCell>
        <mxCell id="3AsOJ7ozK4heC9LJ-4Nu-522" value="" style="shape=mxgraph.cisco.modems_and_phones.hootphone;sketch=0;html=1;pointerEvents=1;dashed=0;fillColor=#036897;strokeColor=#ffffff;strokeWidth=2;verticalLabelPosition=bottom;verticalAlign=top;align=center;outlineConnect=0;" vertex="1" parent="1">
          <mxGeometry x="-560" y="1210" width="44" height="36" as="geometry" />
        </mxCell>
        <mxCell id="3AsOJ7ozK4heC9LJ-4Nu-523" value="" style="shape=mxgraph.cisco.modems_and_phones.hootphone;sketch=0;html=1;pointerEvents=1;dashed=0;fillColor=#036897;strokeColor=#ffffff;strokeWidth=2;verticalLabelPosition=bottom;verticalAlign=top;align=center;outlineConnect=0;" vertex="1" parent="1">
          <mxGeometry x="-514.5" y="1892" width="44" height="36" as="geometry" />
        </mxCell>
        <mxCell id="3AsOJ7ozK4heC9LJ-4Nu-524" value="" style="shape=mxgraph.cisco.modems_and_phones.hootphone;sketch=0;html=1;pointerEvents=1;dashed=0;fillColor=#036897;strokeColor=#ffffff;strokeWidth=2;verticalLabelPosition=bottom;verticalAlign=top;align=center;outlineConnect=0;" vertex="1" parent="1">
          <mxGeometry x="-400" y="1990" width="44" height="36" as="geometry" />
        </mxCell>
        <mxCell id="3AsOJ7ozK4heC9LJ-4Nu-525" value="" style="endArrow=none;html=1;rounded=0;exitX=1;exitY=0;exitDx=0;exitDy=0;exitPerimeter=0;entryX=0;entryY=1;entryDx=0;entryDy=0;entryPerimeter=0;" edge="1" parent="1" source="3AsOJ7ozK4heC9LJ-4Nu-389" target="3AsOJ7ozK4heC9LJ-4Nu-523">
          <mxGeometry width="50" height="50" relative="1" as="geometry">
            <mxPoint x="-330" y="1960" as="sourcePoint" />
            <mxPoint x="-280" y="1910" as="targetPoint" />
          </mxGeometry>
        </mxCell>
        <mxCell id="3AsOJ7ozK4heC9LJ-4Nu-526" value="" style="endArrow=none;html=1;rounded=0;exitX=0.98;exitY=0.5;exitDx=0;exitDy=0;exitPerimeter=0;entryX=0;entryY=1;entryDx=0;entryDy=0;entryPerimeter=0;" edge="1" parent="1" source="3AsOJ7ozK4heC9LJ-4Nu-389" target="3AsOJ7ozK4heC9LJ-4Nu-524">
          <mxGeometry width="50" height="50" relative="1" as="geometry">
            <mxPoint x="-330" y="1960" as="sourcePoint" />
            <mxPoint x="-280" y="1910" as="targetPoint" />
          </mxGeometry>
        </mxCell>
        <mxCell id="3AsOJ7ozK4heC9LJ-4Nu-527" value="" style="shape=mxgraph.cisco.misc.access_point;sketch=0;html=1;pointerEvents=1;dashed=0;fillColor=#036897;strokeColor=#ffffff;strokeWidth=2;verticalLabelPosition=bottom;verticalAlign=top;align=center;outlineConnect=0;" vertex="1" parent="1">
          <mxGeometry x="-560" y="970" width="65" height="24" as="geometry" />
        </mxCell>
        <mxCell id="3AsOJ7ozK4heC9LJ-4Nu-528" value="" style="endArrow=none;html=1;rounded=0;" edge="1" parent="1">
          <mxGeometry width="50" height="50" relative="1" as="geometry">
            <mxPoint x="-330" y="1000" as="sourcePoint" />
            <mxPoint x="-280" y="950" as="targetPoint" />
          </mxGeometry>
        </mxCell>
        <mxCell id="3AsOJ7ozK4heC9LJ-4Nu-529" value="" style="endArrow=none;html=1;rounded=0;exitX=0.12;exitY=0.16;exitDx=0;exitDy=0;exitPerimeter=0;entryX=0.87;entryY=0.74;entryDx=0;entryDy=0;entryPerimeter=0;" edge="1" parent="1" source="3AsOJ7ozK4heC9LJ-4Nu-527" target="3AsOJ7ozK4heC9LJ-4Nu-388">
          <mxGeometry width="50" height="50" relative="1" as="geometry">
            <mxPoint x="-330" y="1000" as="sourcePoint" />
            <mxPoint x="-280" y="950" as="targetPoint" />
          </mxGeometry>
        </mxCell>
        <mxCell id="3AsOJ7ozK4heC9LJ-4Nu-530" value="" style="shape=mxgraph.cisco.misc.access_point;sketch=0;html=1;pointerEvents=1;dashed=0;fillColor=#036897;strokeColor=#ffffff;strokeWidth=2;verticalLabelPosition=bottom;verticalAlign=top;align=center;outlineConnect=0;" vertex="1" parent="1">
          <mxGeometry x="-800" y="1550" width="65" height="24" as="geometry" />
        </mxCell>
        <mxCell id="3AsOJ7ozK4heC9LJ-4Nu-531" value="" style="endArrow=none;html=1;rounded=0;exitX=0;exitY=0.985;exitDx=0;exitDy=0;exitPerimeter=0;entryX=0.98;entryY=0.5;entryDx=0;entryDy=0;entryPerimeter=0;" edge="1" parent="1" source="3AsOJ7ozK4heC9LJ-4Nu-530" target="3AsOJ7ozK4heC9LJ-4Nu-385">
          <mxGeometry width="50" height="50" relative="1" as="geometry">
            <mxPoint x="-330" y="1470" as="sourcePoint" />
            <mxPoint x="-280" y="1420" as="targetPoint" />
          </mxGeometry>
        </mxCell>
        <mxCell id="3AsOJ7ozK4heC9LJ-4Nu-532" value="" style="shape=mxgraph.cisco.misc.access_point;sketch=0;html=1;pointerEvents=1;dashed=0;fillColor=#036897;strokeColor=#ffffff;strokeWidth=2;verticalLabelPosition=bottom;verticalAlign=top;align=center;outlineConnect=0;" vertex="1" parent="1">
          <mxGeometry x="-625" y="1830" width="65" height="24" as="geometry" />
        </mxCell>
        <mxCell id="3AsOJ7ozK4heC9LJ-4Nu-533" value="" style="endArrow=none;html=1;rounded=0;exitX=0.5;exitY=0;exitDx=0;exitDy=0;exitPerimeter=0;entryX=0.5;entryY=0.985;entryDx=0;entryDy=0;entryPerimeter=0;" edge="1" parent="1" source="3AsOJ7ozK4heC9LJ-4Nu-389" target="3AsOJ7ozK4heC9LJ-4Nu-532">
          <mxGeometry width="50" height="50" relative="1" as="geometry">
            <mxPoint x="-330" y="2240" as="sourcePoint" />
            <mxPoint x="-280" y="2190" as="targetPoint" />
          </mxGeometry>
        </mxCell>
        <mxCell id="3AsOJ7ozK4heC9LJ-4Nu-534" value="" style="shape=mxgraph.cisco.misc.access_point;sketch=0;html=1;pointerEvents=1;dashed=0;fillColor=#036897;strokeColor=#ffffff;strokeWidth=2;verticalLabelPosition=bottom;verticalAlign=top;align=center;outlineConnect=0;" vertex="1" parent="1">
          <mxGeometry x="-864" y="2760" width="65" height="24" as="geometry" />
        </mxCell>
        <mxCell id="3AsOJ7ozK4heC9LJ-4Nu-535" value="" style="endArrow=none;html=1;rounded=0;exitX=0;exitY=0.5;exitDx=0;exitDy=0;exitPerimeter=0;entryX=0.87;entryY=0.74;entryDx=0;entryDy=0;entryPerimeter=0;" edge="1" parent="1" source="3AsOJ7ozK4heC9LJ-4Nu-534" target="3AsOJ7ozK4heC9LJ-4Nu-390">
          <mxGeometry width="50" height="50" relative="1" as="geometry">
            <mxPoint x="-330" y="2850" as="sourcePoint" />
            <mxPoint x="-280" y="2800" as="targetPoint" />
          </mxGeometry>
        </mxCell>
        <mxCell id="3AsOJ7ozK4heC9LJ-4Nu-536" value="" style="shape=mxgraph.cisco.modems_and_phones.hootphone;sketch=0;html=1;pointerEvents=1;dashed=0;fillColor=#036897;strokeColor=#ffffff;strokeWidth=2;verticalLabelPosition=bottom;verticalAlign=top;align=center;outlineConnect=0;" vertex="1" parent="1">
          <mxGeometry x="-444" y="2670" width="44" height="36" as="geometry" />
        </mxCell>
        <mxCell id="3AsOJ7ozK4heC9LJ-4Nu-537" value="" style="endArrow=none;html=1;rounded=0;exitX=0.13;exitY=0.5;exitDx=0;exitDy=0;exitPerimeter=0;entryX=1;entryY=0;entryDx=0;entryDy=0;entryPerimeter=0;" edge="1" parent="1" source="3AsOJ7ozK4heC9LJ-4Nu-536" target="3AsOJ7ozK4heC9LJ-4Nu-390">
          <mxGeometry width="50" height="50" relative="1" as="geometry">
            <mxPoint x="-330" y="2480" as="sourcePoint" />
            <mxPoint x="-280" y="2430" as="targetPoint" />
          </mxGeometry>
        </mxCell>
        <mxCell id="3AsOJ7ozK4heC9LJ-4Nu-538" value="Server PT FTP" style="text;html=1;align=center;verticalAlign=middle;whiteSpace=wrap;rounded=0;" vertex="1" parent="1">
          <mxGeometry x="580" y="750" width="60" height="30" as="geometry" />
        </mxCell>
        <mxCell id="3AsOJ7ozK4heC9LJ-4Nu-539" value="DNS" style="text;html=1;align=center;verticalAlign=middle;whiteSpace=wrap;rounded=0;" vertex="1" parent="1">
          <mxGeometry x="650" y="609" width="60" height="30" as="geometry" />
        </mxCell>
        <mxCell id="3AsOJ7ozK4heC9LJ-4Nu-540" value="Server PT Correo" style="text;html=1;align=center;verticalAlign=middle;whiteSpace=wrap;rounded=0;" vertex="1" parent="1">
          <mxGeometry x="511.5" y="510" width="60" height="30" as="geometry" />
        </mxCell>
        <mxCell id="3AsOJ7ozK4heC9LJ-4Nu-541" value="Protocolo VTP&amp;nbsp;" style="text;html=1;align=center;verticalAlign=middle;whiteSpace=wrap;rounded=0;" vertex="1" parent="1">
          <mxGeometry x="-39.5" y="980" width="60" height="30" as="geometry" />
        </mxCell>
        <mxCell id="3AsOJ7ozK4heC9LJ-4Nu-542" value="" style="shape=mxgraph.cisco.storage.cloud;sketch=0;html=1;pointerEvents=1;dashed=0;fillColor=#036897;strokeColor=#ffffff;strokeWidth=2;verticalLabelPosition=bottom;verticalAlign=top;align=center;outlineConnect=0;" vertex="1" parent="1">
          <mxGeometry x="710" y="10" width="186" height="106" as="geometry" />
        </mxCell>
        <mxCell id="3AsOJ7ozK4heC9LJ-4Nu-544" value="" style="sketch=0;pointerEvents=1;shadow=0;dashed=0;html=1;strokeColor=none;fillColor=#DF8C42;labelPosition=center;verticalLabelPosition=bottom;verticalAlign=top;align=center;outlineConnect=0;shape=mxgraph.veeam2.turn_on_off;" vertex="1" parent="1">
          <mxGeometry x="-698" y="-110" width="21" height="21" as="geometry" />
        </mxCell>
        <mxCell id="3AsOJ7ozK4heC9LJ-4Nu-545" value="" style="endArrow=none;html=1;rounded=0;exitX=0.388;exitY=0.197;exitDx=0;exitDy=0;exitPerimeter=0;" edge="1" parent="1" source="3AsOJ7ozK4heC9LJ-4Nu-383" target="3AsOJ7ozK4heC9LJ-4Nu-544">
          <mxGeometry width="50" height="50" relative="1" as="geometry">
            <mxPoint x="-300" as="sourcePoint" />
            <mxPoint x="-250" y="-50" as="targetPoint" />
          </mxGeometry>
        </mxCell>
        <mxCell id="3AsOJ7ozK4heC9LJ-4Nu-546" value="Text" style="text;html=1;align=center;verticalAlign=middle;whiteSpace=wrap;rounded=0;" vertex="1" parent="1">
          <mxGeometry x="-310" y="-40" width="60" height="30" as="geometry" />
        </mxCell>
        <mxCell id="3AsOJ7ozK4heC9LJ-4Nu-547" value="Termostato" style="text;html=1;align=center;verticalAlign=middle;whiteSpace=wrap;rounded=0;" vertex="1" parent="1">
          <mxGeometry x="-699.5" y="-140" width="60" height="30" as="geometry" />
        </mxCell>
        <mxCell id="3AsOJ7ozK4heC9LJ-4Nu-548" value="" style="sketch=0;pointerEvents=1;shadow=0;dashed=0;html=1;strokeColor=none;fillColor=#DF8C42;labelPosition=center;verticalLabelPosition=bottom;verticalAlign=top;align=center;outlineConnect=0;shape=mxgraph.veeam2.turn_on_off;" vertex="1" parent="1">
          <mxGeometry x="-502" y="526" width="21" height="21" as="geometry" />
        </mxCell>
        <mxCell id="3AsOJ7ozK4heC9LJ-4Nu-549" value="Termostato" style="text;html=1;align=center;verticalAlign=middle;whiteSpace=wrap;rounded=0;" vertex="1" parent="1">
          <mxGeometry x="-514.5" y="490" width="60" height="30" as="geometry" />
        </mxCell>
        <mxCell id="3AsOJ7ozK4heC9LJ-4Nu-550" value="" style="endArrow=none;html=1;rounded=0;" edge="1" parent="1" source="3AsOJ7ozK4heC9LJ-4Nu-548" target="3AsOJ7ozK4heC9LJ-4Nu-384">
          <mxGeometry width="50" height="50" relative="1" as="geometry">
            <mxPoint x="-300" y="490" as="sourcePoint" />
            <mxPoint x="-250" y="440" as="targetPoint" />
          </mxGeometry>
        </mxCell>
        <mxCell id="3AsOJ7ozK4heC9LJ-4Nu-551" value="" style="sketch=0;pointerEvents=1;shadow=0;dashed=0;html=1;strokeColor=none;fillColor=#DF8C42;labelPosition=center;verticalLabelPosition=bottom;verticalAlign=top;align=center;outlineConnect=0;shape=mxgraph.veeam2.turn_on_off;" vertex="1" parent="1">
          <mxGeometry x="-600.5" y="767.5" width="21" height="21" as="geometry" />
        </mxCell>
        <mxCell id="3AsOJ7ozK4heC9LJ-4Nu-552" value="Termostato" style="text;html=1;align=center;verticalAlign=middle;whiteSpace=wrap;rounded=0;" vertex="1" parent="1">
          <mxGeometry x="-613" y="730" width="60" height="30" as="geometry" />
        </mxCell>
        <mxCell id="3AsOJ7ozK4heC9LJ-4Nu-553" value="" style="endArrow=none;html=1;rounded=0;" edge="1" parent="1" source="3AsOJ7ozK4heC9LJ-4Nu-388" target="3AsOJ7ozK4heC9LJ-4Nu-551">
          <mxGeometry width="50" height="50" relative="1" as="geometry">
            <mxPoint x="-300" y="810" as="sourcePoint" />
            <mxPoint x="-250" y="760" as="targetPoint" />
          </mxGeometry>
        </mxCell>
        <mxCell id="3AsOJ7ozK4heC9LJ-4Nu-554" value="" style="sketch=0;pointerEvents=1;shadow=0;dashed=0;html=1;strokeColor=none;fillColor=#DF8C42;labelPosition=center;verticalLabelPosition=bottom;verticalAlign=top;align=center;outlineConnect=0;shape=mxgraph.veeam2.turn_on_off;" vertex="1" parent="1">
          <mxGeometry x="-482" y="1439" width="21" height="21" as="geometry" />
        </mxCell>
        <mxCell id="3AsOJ7ozK4heC9LJ-4Nu-555" value="Termostato" style="text;html=1;align=center;verticalAlign=middle;whiteSpace=wrap;rounded=0;" vertex="1" parent="1">
          <mxGeometry x="-497" y="1400" width="60" height="30" as="geometry" />
        </mxCell>
        <mxCell id="3AsOJ7ozK4heC9LJ-4Nu-556" value="" style="endArrow=none;html=1;rounded=0;exitX=0.98;exitY=0.5;exitDx=0;exitDy=0;exitPerimeter=0;" edge="1" parent="1" source="3AsOJ7ozK4heC9LJ-4Nu-385" target="3AsOJ7ozK4heC9LJ-4Nu-554">
          <mxGeometry width="50" height="50" relative="1" as="geometry">
            <mxPoint x="-300" y="1480" as="sourcePoint" />
            <mxPoint x="-250" y="1430" as="targetPoint" />
          </mxGeometry>
        </mxCell>
        <mxCell id="3AsOJ7ozK4heC9LJ-4Nu-557" value="" style="sketch=0;pointerEvents=1;shadow=0;dashed=0;html=1;strokeColor=none;fillColor=#DF8C42;labelPosition=center;verticalLabelPosition=bottom;verticalAlign=top;align=center;outlineConnect=0;shape=mxgraph.veeam2.turn_on_off;" vertex="1" parent="1">
          <mxGeometry x="-645.5" y="2330" width="21" height="21" as="geometry" />
        </mxCell>
        <mxCell id="3AsOJ7ozK4heC9LJ-4Nu-558" value="Termostato" style="text;html=1;align=center;verticalAlign=middle;whiteSpace=wrap;rounded=0;" vertex="1" parent="1">
          <mxGeometry x="-661.5" y="2290" width="60" height="30" as="geometry" />
        </mxCell>
        <mxCell id="3AsOJ7ozK4heC9LJ-4Nu-559" value="" style="endArrow=none;html=1;rounded=0;entryX=0.87;entryY=0.74;entryDx=0;entryDy=0;entryPerimeter=0;" edge="1" parent="1" source="3AsOJ7ozK4heC9LJ-4Nu-557" target="3AsOJ7ozK4heC9LJ-4Nu-389">
          <mxGeometry width="50" height="50" relative="1" as="geometry">
            <mxPoint x="-300" y="2290" as="sourcePoint" />
            <mxPoint x="-250" y="2240" as="targetPoint" />
          </mxGeometry>
        </mxCell>
        <mxCell id="3AsOJ7ozK4heC9LJ-4Nu-560" value="Fire Monitor" style="whiteSpace=wrap;html=1;aspect=fixed;" vertex="1" parent="1">
          <mxGeometry x="-649" y="2830" width="80" height="80" as="geometry" />
        </mxCell>
        <mxCell id="3AsOJ7ozK4heC9LJ-4Nu-561" value="Fire Monitor" style="whiteSpace=wrap;html=1;aspect=fixed;" vertex="1" parent="1">
          <mxGeometry x="-930" y="2070" width="80" height="80" as="geometry" />
        </mxCell>
        <mxCell id="3AsOJ7ozK4heC9LJ-4Nu-562" value="Fire Monitor" style="whiteSpace=wrap;html=1;aspect=fixed;" vertex="1" parent="1">
          <mxGeometry x="-1000" y="1390" width="80" height="80" as="geometry" />
        </mxCell>
        <mxCell id="3AsOJ7ozK4heC9LJ-4Nu-563" value="Fire Monitor" style="whiteSpace=wrap;html=1;aspect=fixed;" vertex="1" parent="1">
          <mxGeometry x="-1040" y="908" width="80" height="80" as="geometry" />
        </mxCell>
        <mxCell id="3AsOJ7ozK4heC9LJ-4Nu-564" value="Fire Monitor" style="whiteSpace=wrap;html=1;aspect=fixed;" vertex="1" parent="1">
          <mxGeometry x="-980" y="465" width="80" height="80" as="geometry" />
        </mxCell>
        <mxCell id="3AsOJ7ozK4heC9LJ-4Nu-565" value="Fire Monitor" style="whiteSpace=wrap;html=1;aspect=fixed;" vertex="1" parent="1">
          <mxGeometry x="-1000" y="10" width="80" height="80" as="geometry" />
        </mxCell>
        <mxCell id="3AsOJ7ozK4heC9LJ-4Nu-566" value="" style="endArrow=none;html=1;rounded=0;exitX=0.5;exitY=0.98;exitDx=0;exitDy=0;exitPerimeter=0;entryX=0.5;entryY=0;entryDx=0;entryDy=0;" edge="1" parent="1" source="3AsOJ7ozK4heC9LJ-4Nu-390" target="3AsOJ7ozK4heC9LJ-4Nu-560">
          <mxGeometry width="50" height="50" relative="1" as="geometry">
            <mxPoint x="-560" y="2640" as="sourcePoint" />
            <mxPoint x="-510" y="2590" as="targetPoint" />
          </mxGeometry>
        </mxCell>
        <mxCell id="3AsOJ7ozK4heC9LJ-4Nu-567" value="" style="endArrow=none;html=1;rounded=0;exitX=1;exitY=0.5;exitDx=0;exitDy=0;entryX=0;entryY=0.98;entryDx=0;entryDy=0;entryPerimeter=0;" edge="1" parent="1" source="3AsOJ7ozK4heC9LJ-4Nu-561" target="3AsOJ7ozK4heC9LJ-4Nu-389">
          <mxGeometry width="50" height="50" relative="1" as="geometry">
            <mxPoint x="-560" y="2470" as="sourcePoint" />
            <mxPoint x="-510" y="2420" as="targetPoint" />
          </mxGeometry>
        </mxCell>
        <mxCell id="3AsOJ7ozK4heC9LJ-4Nu-568" value="" style="endArrow=none;html=1;rounded=0;exitX=1;exitY=0.5;exitDx=0;exitDy=0;entryX=0.16;entryY=0.23;entryDx=0;entryDy=0;entryPerimeter=0;" edge="1" parent="1" source="3AsOJ7ozK4heC9LJ-4Nu-562" target="3AsOJ7ozK4heC9LJ-4Nu-385">
          <mxGeometry width="50" height="50" relative="1" as="geometry">
            <mxPoint x="-560" y="1300" as="sourcePoint" />
            <mxPoint x="-510" y="1250" as="targetPoint" />
          </mxGeometry>
        </mxCell>
        <mxCell id="3AsOJ7ozK4heC9LJ-4Nu-569" value="" style="endArrow=none;html=1;rounded=0;exitX=1;exitY=0.5;exitDx=0;exitDy=0;entryX=0;entryY=0.98;entryDx=0;entryDy=0;entryPerimeter=0;" edge="1" parent="1" source="3AsOJ7ozK4heC9LJ-4Nu-563" target="3AsOJ7ozK4heC9LJ-4Nu-388">
          <mxGeometry width="50" height="50" relative="1" as="geometry">
            <mxPoint x="-560" y="970" as="sourcePoint" />
            <mxPoint x="-510" y="920" as="targetPoint" />
          </mxGeometry>
        </mxCell>
        <mxCell id="3AsOJ7ozK4heC9LJ-4Nu-570" value="" style="endArrow=none;html=1;rounded=0;entryX=1;entryY=0.5;entryDx=0;entryDy=0;exitX=0;exitY=0.98;exitDx=0;exitDy=0;exitPerimeter=0;" edge="1" parent="1" source="3AsOJ7ozK4heC9LJ-4Nu-384" target="3AsOJ7ozK4heC9LJ-4Nu-564">
          <mxGeometry width="50" height="50" relative="1" as="geometry">
            <mxPoint x="-560" y="640" as="sourcePoint" />
            <mxPoint x="-510" y="590" as="targetPoint" />
          </mxGeometry>
        </mxCell>
        <mxCell id="3AsOJ7ozK4heC9LJ-4Nu-571" value="" style="endArrow=none;html=1;rounded=0;exitX=1;exitY=0.5;exitDx=0;exitDy=0;entryX=0;entryY=0.5;entryDx=0;entryDy=0;entryPerimeter=0;" edge="1" parent="1" source="3AsOJ7ozK4heC9LJ-4Nu-565" target="3AsOJ7ozK4heC9LJ-4Nu-383">
          <mxGeometry width="50" height="50" relative="1" as="geometry">
            <mxPoint x="-560" y="300" as="sourcePoint" />
            <mxPoint x="-510" y="250" as="targetPoint" />
          </mxGeometry>
        </mxCell>
        <mxCell id="3AsOJ7ozK4heC9LJ-4Nu-572" value="Carbon Monoxide Detector" style="ellipse;whiteSpace=wrap;html=1;" vertex="1" parent="1">
          <mxGeometry x="-607.5" y="-250" width="100" height="60" as="geometry" />
        </mxCell>
        <mxCell id="3AsOJ7ozK4heC9LJ-4Nu-575" value="Carbon Monoxide Detector" style="ellipse;whiteSpace=wrap;html=1;" vertex="1" parent="1">
          <mxGeometry x="-491" y="569.6" width="77.5" height="50" as="geometry" />
        </mxCell>
        <mxCell id="3AsOJ7ozK4heC9LJ-4Nu-576" value="Carbon Monoxide Detector" style="ellipse;whiteSpace=wrap;html=1;" vertex="1" parent="1">
          <mxGeometry x="-481" y="957" width="100" height="60" as="geometry" />
        </mxCell>
        <mxCell id="3AsOJ7ozK4heC9LJ-4Nu-577" value="Carbon Monoxide Detector" style="ellipse;whiteSpace=wrap;html=1;" vertex="1" parent="1">
          <mxGeometry x="-910" y="1590" width="100" height="65" as="geometry" />
        </mxCell>
        <mxCell id="3AsOJ7ozK4heC9LJ-4Nu-578" value="Carbon Monoxide Detector" style="ellipse;whiteSpace=wrap;html=1;" vertex="1" parent="1">
          <mxGeometry x="-625" y="1740" width="100" height="60" as="geometry" />
        </mxCell>
        <mxCell id="3AsOJ7ozK4heC9LJ-4Nu-579" value="Carbon Monoxide Detector" style="ellipse;whiteSpace=wrap;html=1;" vertex="1" parent="1">
          <mxGeometry x="-1010" y="2715" width="100" height="60" as="geometry" />
        </mxCell>
        <mxCell id="3AsOJ7ozK4heC9LJ-4Nu-586" value="" style="html=1;verticalLabelPosition=bottom;align=center;labelBackgroundColor=#ffffff;verticalAlign=top;strokeWidth=2;strokeColor=#0080F0;shadow=0;dashed=0;shape=mxgraph.ios7.icons.cup;" vertex="1" parent="1">
          <mxGeometry x="-820" y="2690" width="30" height="30" as="geometry" />
        </mxCell>
        <mxCell id="3AsOJ7ozK4heC9LJ-4Nu-588" value="" style="endArrow=none;html=1;rounded=0;exitX=1;exitY=0;exitDx=0;exitDy=0;exitPerimeter=0;entryX=0.5;entryY=1;entryDx=0;entryDy=0;entryPerimeter=0;" edge="1" parent="1" source="3AsOJ7ozK4heC9LJ-4Nu-385" target="3AsOJ7ozK4heC9LJ-4Nu-522">
          <mxGeometry width="50" height="50" relative="1" as="geometry">
            <mxPoint x="-790" y="1170" as="sourcePoint" />
            <mxPoint x="-740" y="1120" as="targetPoint" />
          </mxGeometry>
        </mxCell>
        <mxCell id="3AsOJ7ozK4heC9LJ-4Nu-589" value="" style="endArrow=none;html=1;rounded=0;entryX=0.13;entryY=0.5;entryDx=0;entryDy=0;entryPerimeter=0;" edge="1" parent="1" source="3AsOJ7ozK4heC9LJ-4Nu-385" target="3AsOJ7ozK4heC9LJ-4Nu-521">
          <mxGeometry width="50" height="50" relative="1" as="geometry">
            <mxPoint x="-790" y="1170" as="sourcePoint" />
            <mxPoint x="-740" y="1120" as="targetPoint" />
          </mxGeometry>
        </mxCell>
        <mxCell id="3AsOJ7ozK4heC9LJ-4Nu-590" value="" style="html=1;verticalLabelPosition=bottom;align=center;labelBackgroundColor=#ffffff;verticalAlign=top;strokeWidth=2;strokeColor=#0080F0;shadow=0;dashed=0;shape=mxgraph.ios7.icons.bluetooth;pointerEvents=1" vertex="1" parent="1">
          <mxGeometry x="-578.5" y="1880" width="15" height="28.799999999999997" as="geometry" />
        </mxCell>
        <mxCell id="3AsOJ7ozK4heC9LJ-4Nu-591" value="" style="html=1;verticalLabelPosition=bottom;align=center;labelBackgroundColor=#ffffff;verticalAlign=top;strokeWidth=2;strokeColor=#0080F0;shadow=0;dashed=0;shape=mxgraph.ios7.icons.bluetooth;pointerEvents=1" vertex="1" parent="1">
          <mxGeometry x="-850" y="2720" width="15" height="28.799999999999997" as="geometry" />
        </mxCell>
        <mxCell id="3AsOJ7ozK4heC9LJ-4Nu-592" value="" style="html=1;verticalLabelPosition=bottom;align=center;labelBackgroundColor=#ffffff;verticalAlign=top;strokeWidth=2;strokeColor=#0080F0;shadow=0;dashed=0;shape=mxgraph.ios7.icons.bluetooth;pointerEvents=1" vertex="1" parent="1">
          <mxGeometry x="-827" y="1521.2" width="15" height="28.799999999999997" as="geometry" />
        </mxCell>
        <mxCell id="3AsOJ7ozK4heC9LJ-4Nu-593" value="" style="html=1;verticalLabelPosition=bottom;align=center;labelBackgroundColor=#ffffff;verticalAlign=top;strokeWidth=2;strokeColor=#0080F0;shadow=0;dashed=0;shape=mxgraph.ios7.icons.bluetooth;pointerEvents=1" vertex="1" parent="1">
          <mxGeometry x="-482" y="1021.2" width="15" height="28.799999999999997" as="geometry" />
        </mxCell>
        <mxCell id="3AsOJ7ozK4heC9LJ-4Nu-594" value="" style="html=1;verticalLabelPosition=bottom;align=center;labelBackgroundColor=#ffffff;verticalAlign=top;strokeWidth=2;strokeColor=#0080F0;shadow=0;dashed=0;shape=mxgraph.ios7.icons.bluetooth;pointerEvents=1" vertex="1" parent="1">
          <mxGeometry x="-556.5" y="580.2" width="16.5" height="28.8" as="geometry" />
        </mxCell>
        <mxCell id="3AsOJ7ozK4heC9LJ-4Nu-595" value="" style="html=1;verticalLabelPosition=bottom;align=center;labelBackgroundColor=#ffffff;verticalAlign=top;strokeWidth=2;strokeColor=#0080F0;shadow=0;dashed=0;shape=mxgraph.ios7.icons.bluetooth;pointerEvents=1" vertex="1" parent="1">
          <mxGeometry x="-603" y="-168.79999999999995" width="16.5" height="28.8" as="geometry" />
        </mxCell>
        <mxCell id="3AsOJ7ozK4heC9LJ-4Nu-596" value="" style="endArrow=none;html=1;rounded=0;exitX=0.5;exitY=0;exitDx=0;exitDy=0;exitPerimeter=0;entryX=0.5;entryY=0.98;entryDx=0;entryDy=0;entryPerimeter=0;" edge="1" parent="1" source="3AsOJ7ozK4heC9LJ-4Nu-411" target="3AsOJ7ozK4heC9LJ-4Nu-384">
          <mxGeometry width="50" height="50" relative="1" as="geometry">
            <mxPoint x="-710" y="580" as="sourcePoint" />
            <mxPoint x="-660" y="530" as="targetPoint" />
          </mxGeometry>
        </mxCell>
      </root>
    </mxGraphModel>
  </diagram>
</mxfile>
